<svg width="100%" viewBox="0 0 200 200" version="1.1" xmlns="http://www.w3.org/2000/svg" xmlns:xlink="http://www.w3.org/1999/xlink"><path d="M77.82879,12.96118v-8.08171c0.05463,-2.08512 2.05805,-4.86239 5.04415,-4.87947l70.61955,0.0761c2.64098,0.00024 5.04391,2.32468 5.04415,4.87947v186.18425c-0.01415,2.08049 -1.56171,4.06561 -3.62561,4.65073l-14.26562,4.04098c-2.72805,0.76634 -5.91976,-1.17756 -6.38415,-3.88854l-7.72415,-46.12661l-9.93074,-4.95586c-2.36415,-1.18512 -3.38317,-4.36122 -2.12805,-6.63293l17.10318,-30.64953c-4.63391,-17.37025 -7.90318,-35.26782 -15.13269,-51.84491c-8.22757,-8.69464 -13.82708,-13.39928 -19.15245,-18.3744c-3.93805,-3.67927 -7.8461,-7.6922 -12.53171,-13.57123c-4.48634,8.4083 -9.45635,17.26757 -13.79293,26.15123c-1.3839,-0.56293 -2.8639,-0.92927 -4.41366,-1.06732c5.97878,-7.90683 11.98732,-17.41855 17.97001,-25.3127c-1.68244,-2.12073 -3.42025,-4.54805 -5.35952,-7.24293c-10.09854,11.6144 -17.58245,22.39318 -21.51684,34.46148c-4.52269,2.54415 -7.56635,7.27683 -7.56635,12.65635c0,6.46342 4.42415,11.96098 10.48269,13.87611c-2.16903,10.73684 -2.46829,31.5166 9.85196,37.3588c5.07927,0 30.46685,-14.63854 35.54612,-14.63854c5.07952,0 7.66269,17.0783 5.12317,26.83733c-2.53976,7.31927 -3.74829,14.63854 -8.82757,21.95782c3.49366,-10.0683 2.74073,-16.67416 1.93,-23.7866c-0.36781,-3.22854 -0.74781,-6.56147 -0.74781,-10.37001c-7.61903,7.31927 -15.22001,12.19879 -25.37879,17.0783l16.86684,24.55001l-20.33465,34.15685c2.53951,-10.57244 7.64513,-24.39782 7.64513,-31.71709c-15.23806,-17.0783 -37.18368,-29.42953 -39.72344,-53.8271c-2.53976,-17.0783 -0.01756,-41.47588 2.5222,-48.79515c4.86439,-14.01903 21.34952,-30.18099 33.89099,-40.10368c-0.94585,-0.79366 -1.14171,-1.75927 -1.10342,-3.04951zM148.4481,9.83508l-60.53077,-0.0761v1.60098c6.79659,9.35927 11.4122,14.3305 16.39367,18.9844c5.24269,4.89805 11.17537,9.8244 20.25587,19.51806c0.43585,0.44024 0.78561,0.96049 1.02463,1.52488c7.1322,17.99221 11.47391,36.73051 16.23611,55.50442c0.34195,1.18512 0.1978,2.49439 -0.39415,3.58342l-15.6844,27.98099l7.64513,3.81195c1.40707,0.69878 2.43415,2.07195 2.67976,3.58342l7.1722,43.0771l5.20195,-1.52488zM55.12951,63.43365c0,-5.38976 4.51683,-9.75903 10.08854,-9.75903c5.57171,0 10.08854,4.36927 10.08854,9.75903c0,5.38976 -4.51683,9.75903 -10.08854,9.75903c-5.57171,0 -10.08854,-4.36927 -10.08854,-9.75903z" fill-rule="evenodd"></path></svg>