<svg width="100%" viewBox="0 0 200 200" version="1.1" xmlns="http://www.w3.org/2000/svg" xmlns:xlink="http://www.w3.org/1999/xlink"><path d="M102.5,2.5v15.41625c0,1.38075 -1.11825,2.5 -2.5,2.5c-1.38175,0 -2.5,-1.11925 -2.5,-2.5v-15.41625c0,-1.3805 1.11825,-2.5 2.5,-2.5c1.38175,0 2.5,1.1195 2.5,2.5zM60.2075,31.079c-0.393,0.22725 -0.82275,0.3345 -1.2475,0.3345c-0.86425,0 -1.70425,-0.448 -2.168,-1.25l-7.7075,-13.35075c-0.691,-1.19625 -0.28075,-2.7245 0.9155,-3.4155c1.1915,-0.68975 2.72225,-0.28075 3.4155,0.9155l7.7075,13.35075c0.691,1.19625 0.28075,2.72475 -0.9155,3.4155zM143.208,30.1635c-0.46375,0.802 -1.30375,1.25 -2.168,1.25c-0.42475,0 -0.8545,-0.10725 -1.2475,-0.3345c-1.19625,-0.69075 -1.6065,-2.21925 -0.9155,-3.4155l7.7075,-13.35075c0.691,-1.19625 2.22175,-1.60525 3.4155,-0.9155c1.19625,0.691 1.6065,2.21925 0.9155,3.4155zM16.8115,49.0845l13.352,7.70875c1.19625,0.69075 1.6065,2.21925 0.9155,3.4155c-0.46375,0.802 -1.3035,1.25 -2.16775,1.25c-0.425,0 -0.8545,-0.1075 -1.24775,-0.3345l-13.352,-7.70875c-1.19625,-0.691 -1.6065,-2.21925 -0.9155,-3.4155c0.691,-1.1975 2.22175,-1.6065 3.4155,-0.9155zM172.3365,61.12425c-0.39325,0.227 -0.82275,0.3345 -1.24775,0.3345c-0.86425,0 -1.704,-0.448 -2.16775,-1.25c-0.691,-1.19625 -0.28075,-2.72475 0.9155,-3.4155l13.352,-7.70875c1.1915,-0.691 2.72225,-0.282 3.4155,0.9155c0.691,1.19625 0.28075,2.7245 -0.9155,3.4155zM156.823,93.8335c0.06175,0.19 0.10075,0.37725 0.11575,0.5725c0.00525,0.06675 0.03875,0.12425 0.03875,0.1925c0,0.0515 -0.02625,0.09475 -0.02925,0.1455c-0.0125,0.20775 -0.0585,0.405 -0.12175,0.60375c-0.032,0.09975 -0.04975,0.201 -0.093,0.295c-0.0885,0.1915 -0.218,0.36025 -0.35575,0.52725c-0.05825,0.07075 -0.09775,0.1535 -0.16375,0.21725c-0.0105,0.01025 -0.01475,0.02375 -0.025,0.03375l-54.685,51.31575c-0.0385,0.036 -0.08875,0.04825 -0.12875,0.08125c-0.16175,0.1345 -0.33675,0.2425 -0.52725,0.33275c-0.07625,0.036 -0.14625,0.0805 -0.22525,0.10825c-0.26375,0.09375 -0.54,0.15525 -0.83025,0.15525c-0.29025,0 -0.5665,-0.0615 -0.83025,-0.15525c-0.079,-0.02775 -0.149,-0.07225 -0.22525,-0.10825c-0.1905,-0.09025 -0.3655,-0.19825 -0.52725,-0.33275c-0.04,-0.033 -0.09025,-0.04525 -0.12875,-0.08125l-54.685,-51.31575c-0.0105,-0.01 -0.015,-0.0235 -0.02525,-0.03375c-0.06575,-0.0635 -0.105,-0.14625 -0.16325,-0.21675c-0.138,-0.1675 -0.2675,-0.3365 -0.356,-0.52825c-0.0435,-0.0935 -0.061,-0.1945 -0.09275,-0.2935c-0.0635,-0.19925 -0.1095,-0.39675 -0.122,-0.60475c-0.003,-0.05075 -0.02925,-0.094 -0.02925,-0.1455c0,-0.06825 0.03325,-0.1255 0.03875,-0.19225c0.015,-0.19575 0.05375,-0.38325 0.1155,-0.57325c0.03875,-0.11775 0.07575,-0.2295 0.1305,-0.339c0.029,-0.0585 0.03525,-0.123 0.06925,-0.17975l11.17425,-18.6755c6.44275,-10.75925 18.2325,-17.444 30.7715,-17.444h29.7705c12.5365,0 24.32625,6.68475 30.769,17.444l11.17675,18.6755c0.034,0.05675 0.04,0.121 0.069,0.1795c0.055,0.1095 0.09225,0.22175 0.1305,0.33975zM84.90725,62.19475c-10.791,0 -20.9375,5.752 -26.4795,15.01225l-8.9115,14.8915h28.53475l17.60775,-29.90375zM150.06825,92.0985l-8.9135,-14.8915c-5.542,-9.26025 -15.6885,-15.01225 -26.477,-15.01225h-10.752l17.606,29.90375zM99.7925,65.02675l-15.9405,27.07175h31.87875zM93.30925,136.40175l-15.67,-39.30325h-26.21525zM99.7925,139.16375l16.769,-42.06525h-33.5405zM148.161,97.0985h-26.21775l-15.66825,39.304zM17.9175,102.5h-15.4175c-1.38175,0 -2.5,-1.1195 -2.5,-2.5c0,-1.3805 1.11825,-2.5 2.5,-2.5h15.4175c1.38175,0 2.5,1.1195 2.5,2.5c0,1.3805 -1.11825,2.5 -2.5,2.5zM197.5,97.5c1.38175,0 2.5,1.1195 2.5,2.5c0,1.3805 -1.11825,2.5 -2.5,2.5h-15.4175c-1.38175,0 -2.5,-1.1195 -2.5,-2.5c0,-1.3805 1.11825,-2.5 2.5,-2.5zM14.3115,146.5845l13.352,-7.70875c1.1915,-0.69225 2.72225,-0.282 3.4155,0.9155c0.691,1.19625 0.28075,2.7245 -0.9155,3.4155l-13.352,7.70875c-0.393,0.227 -0.82275,0.3345 -1.2475,0.3345c-0.86425,0 -1.70425,-0.448 -2.168,-1.25c-0.691,-1.19625 -0.28075,-2.7245 0.9155,-3.4155zM183.1885,150.9155l-13.352,-7.70875c-1.19625,-0.691 -1.6065,-2.21925 -0.9155,-3.4155c0.69075,-1.1975 2.21925,-1.60775 3.4155,-0.9155l13.352,7.70875c1.19625,0.691 1.6065,2.21925 0.9155,3.4155c-0.46375,0.802 -1.30375,1.25 -2.168,1.25c-0.42475,0 -0.8545,-0.1075 -1.2475,-0.3345zM49.0845,183.18725l7.7075,-13.35075c0.691,-1.1975 2.21925,-1.60775 3.4155,-0.9155c1.19625,0.69075 1.6065,2.21925 0.9155,3.4155l-7.7075,13.35075c-0.46375,0.802 -1.30375,1.25 -2.168,1.25c-0.42475,0 -0.8545,-0.1075 -1.2475,-0.3345c-1.19625,-0.691 -1.6065,-2.21925 -0.9155,-3.4155zM138.877,172.3365c-0.691,-1.19625 -0.28075,-2.72475 0.9155,-3.4155c1.189,-0.69225 2.72225,-0.282 3.4155,0.9155l7.7075,13.35075c0.691,1.19625 0.28075,2.7245 -0.9155,3.4155c-0.393,0.227 -0.82275,0.3345 -1.2475,0.3345c-0.86425,0 -1.70425,-0.448 -2.168,-1.25zM97.5,197.5v-15.41625c0,-1.38075 1.11825,-2.5 2.5,-2.5c1.38175,0 2.5,1.11925 2.5,2.5v15.41625c0,1.3805 -1.11825,2.5 -2.5,2.5c-1.38175,0 -2.5,-1.1195 -2.5,-2.5z" fill-rule="evenodd"></path></svg>