<svg width="100%" viewBox="0 0 200 200" version="1.1" xmlns="http://www.w3.org/2000/svg" xmlns:xlink="http://www.w3.org/1999/xlink"><path d="M155.29609,0.7987c-3.10634,2.33246 -5.09309,5.86036 -5.47667,9.7261c-0.70869,3.44277 0.26993,7.01683 2.6337,9.61845c0.10874,0.10076 0.27484,0.10775 0.39178,0.01639c0.11693,-0.09131 0.15081,-0.25397 0.07923,-0.38413c-0.6464,-1.63792 -0.86988,-3.41222 -0.64968,-5.1592c0.17376,-3.46293 1.45891,-6.77772 3.66477,-9.45289c0.53548,-0.54215 1.12888,-1.02386 1.76928,-1.43651c0.67263,-0.48576 1.61901,-0.90759 2.02172,-1.61246c0.76006,-1.33215 -0.65023,-2.08128 -1.77583,-2.11351c-0.94802,-0.01929 -1.87746,0.25976 -2.65828,0.79776zM166.04124,2.18822c-3.11235,1.1585 -5.67337,3.44878 -7.17108,6.41321c-2.53753,4.77071 -5.55426,13.39087 0.39669,16.91958c0.25189,0.14917 0.6169,-0.17376 0.42183,-0.42893c-1.40154,-2.20919 -1.67256,-4.95228 -0.73,-7.39293c0.75896,-2.53217 1.81517,-4.9655 3.14678,-7.24922c1.08845,-2.1457 2.97793,-3.77679 5.25974,-4.54067c1.11577,-0.30014 2.27962,-0.37445 3.42435,-0.21856c1.44744,0.41937 2.96865,0.52078 4.45871,0.29725c0.36992,-0.1124 0.66826,-0.38697 0.81087,-0.74601c0.14316,-0.35905 0.11475,-0.76361 -0.07704,-1.09921c-1.29936,-1.58694 -3.25387,-2.49103 -5.30455,-2.45338c-1.56328,-0.17321 -3.14568,-0.00295 -4.63629,0.49887zM145.34159,6.42344c-0.92234,2.1628 -1.07479,4.57657 -0.43221,6.83832c0.6169,2.12641 1.63213,4.11632 2.99105,5.86407c0.08305,0.1283 0.24643,0.17802 0.38631,0.11748c0.14043,-0.06049 0.21638,-0.21343 0.17977,-0.36172c-0.29506,-1.92773 -0.97589,-3.81831 -1.12069,-5.76353c-0.08743,-0.8465 -0.08142,-1.70005 0.01858,-2.54518c0.15737,-1.03709 0.55297,-2.0097 0.72454,-3.03695c0.15518,-0.65138 -0.13114,-1.32789 -0.70705,-1.66983l-0.77044,-0.19671c-0.52947,0 -1.01632,0.28927 -1.26986,0.75405zM162.36609,20.65305c-0.3956,2.27011 -0.3191,4.59738 0.22457,6.83668c0.56991,2.04139 1.63049,3.9123 3.08886,5.45044c0.21037,0.24206 0.56772,-0.07103 0.42565,-0.33222c-0.88956,-1.86818 -1.31138,-3.92525 -1.22833,-5.99302c0.03606,-1.91517 0.36664,-3.8134 0.98026,-5.62802c0.62837,-1.83326 1.51793,-3.56625 2.64135,-5.14554c0.40106,-0.59302 0.88409,-1.12648 1.43433,-1.58459l0.34041,-0.22895l0.52619,-0.31419l0.44478,-0.22184l0.14698,-0.06065l1.1256,-0.33604l0.3956,-0.07923l0.37812,-0.0377c0.37484,-0.03005 0.75077,-0.03989 1.12615,-0.02951l0.67755,0.05464c0.51472,0.08273 1.02179,0.2096 1.51465,0.37921l0.66771,0.30927l0.45461,0.27976l0.47538,0.43713l0.01147,0.01202l0.13988,0.23277l0.0153,0.06338l-0.02186,0.24479l-0.0377,0.07704l-0.3874,0.6699l-0.03333,0.04754l-0.07103,0.07759l-0.54313,0.71798l-0.34861,0.93163c-0.23059,0.42658 -0.2202,0.94299 0.02677,1.36007c0.24752,0.41713 0.69558,0.67372 1.18079,0.67585c1.35236,0.06803 2.65063,-0.53728 3.46806,-1.61683c0.97807,-1.32116 1.2868,-3.02159 0.83601,-4.6023c-0.45079,-1.58071 -1.60972,-2.86248 -3.13749,-3.46927c-3.24458,-1.64704 -7.08366,-1.6336 -10.31677,0.03606c-3.72979,2.4042 -6.16569,6.37218 -6.6214,10.78613zM54.28346,94.51456c-6.96017,-10.92274 -17.62664,-18.96862 -30.04107,-22.66071c-0.99173,-0.23168 -1.68021,1.2633 -0.69558,1.71354c8.006,3.75821 15.13064,9.16002 20.91002,15.85409c5.43951,6.46021 10.35775,13.34224 14.70826,20.58053c4.44614,7.41205 9.33869,14.54707 14.65144,21.36463c4.53083,6.16241 10.42058,11.19813 17.21191,14.71701c3.34895,1.56383 7.02082,2.31295 10.7151,2.18564c1.92172,-0.1071 3.82268,-0.45297 5.65862,-1.02998c1.02944,-0.27266 2.02281,-0.66826 2.95772,-1.17806c0.86988,-0.53075 1.71682,-1.09628 2.54081,-1.6966c0.1448,-0.09289 0.20108,-0.27648 0.13332,-0.4344c-0.06775,-0.15791 -0.23987,-0.2437 -0.40653,-0.20272c-1.09173,0.20654 -2.19766,0.32839 -3.30797,0.36555c-0.90485,0.00984 -1.872,0.33932 -2.78669,0.42292c-1.68404,0.15846 -3.379,0.16283 -5.06358,0.01257c5.76736,-5.48705 9.3682,-12.86632 10.14355,-20.78926c-0.08087,-4.54067 -1.24745,-8.99664 -3.4014,-12.99472c-2.05887,-4.44505 -4.36582,-8.76824 -6.652,-13.09909c-4.86687,-8.25462 -8.50105,-17.1764 -10.78723,-26.48231c-0.95676,-4.70896 -1.1267,-9.54414 -0.5016,-14.30829c1.38351,-11.4992 8.2038,-21.6351 18.33479,-27.24837c6.34327,-3.6598 13.45644,-5.78058 20.76795,-6.19192c3.69373,-0.25075 7.40386,-0.09573 11.06371,0.46226c3.63253,0.67187 7.21207,1.60115 10.71291,2.78068c0.45625,0.14316 0.67809,-0.51199 0.30326,-0.75022c-3.82596,-2.27815 -8.05627,-3.79602 -12.45815,-4.47018c-4.44177,-0.82082 -8.97588,-1.01993 -13.47228,-0.59176c-15.42406,0.99589 -29.16955,10.07962 -36.133,23.87812c-3.85984,8.9726 -4.73956,18.94731 -2.51021,28.45703c1.46656,6.17389 3.65439,12.1538 6.51922,17.81624c-1.50991,-1.28224 -2.99342,-2.59217 -4.45051,-3.92978c-3.81394,-3.45058 -7.4421,-7.10114 -10.86864,-10.93694c-5.46246,-5.86571 -9.81953,-12.6707 -12.86031,-20.08658c-1.34089,-3.44238 -2.08401,-7.08912 -2.19711,-10.78176c0.18633,-3.77733 0.64094,-7.53609 1.36001,-11.24894c0.13496,-0.61854 -0.19507,-1.24472 -0.78191,-1.48186c-0.58739,-0.23769 -1.26002,-0.01749 -1.59279,0.52128c-1.60699,2.25831 -2.5725,4.90949 -2.79489,7.67214c-0.34151,2.64845 -0.33604,5.33023 0.01639,7.97759c0.79503,5.39361 2.65063,10.57631 5.46082,15.24812c4.37565,7.14103 9.88456,13.52201 16.31088,18.89267c4.24178,3.56696 8.67863,6.89624 13.28978,9.97089c1.21631,2.44409 2.48562,4.85868 3.75329,7.26288c2.28509,4.3303 4.59585,8.65459 6.63123,13.10947c1.9485,3.61232 2.86865,7.68963 2.66047,11.7888c-0.22457,1.78294 -0.65405,3.53473 -1.28024,5.21931c-0.24643,0.6546 -0.66881,1.62174 -1.09774,2.47141c-0.42893,0.84967 -0.87316,1.69387 -1.35073,2.51676c-1.74032,3.00307 -3.74728,5.84167 -5.61709,8.76551l-1.68731,-0.47428l-1.24363,-0.44259l-0.32238,-0.13168l-0.56007,-0.24916c-0.74858,-0.34642 -1.49388,-0.70104 -2.21569,-1.10102c-0.79612,-0.44205 -1.57585,-0.9125 -2.33098,-1.42067l-1.05184,-0.73219l-0.45625,-0.33495l-0.2732,-0.20928c-1.47039,-1.1338 -2.87521,-2.35011 -4.20736,-3.64346c-1.39553,-1.35983 -2.73697,-2.7683 -4.02431,-4.22539l-2.03647,-2.37579l-1.64524,-2.05396c-5.21494,-6.79297 -9.65506,-14.14109 -14.30884,-21.31873l-0.9584,-1.47203c-1.4152,-3.05225 -2.35175,-6.30393 -2.7774,-9.6414c-0.23059,-2.36049 -0.31091,-4.733 -0.24042,-7.10333c0.94784,1.7915 1.9658,3.54165 3.05389,5.25045c4.53466,7.1607 10.60199,13.22585 17.76379,17.75832c3.58609,2.22935 7.36615,4.13031 11.29429,5.67884c2.01134,0.80705 4.04617,1.55017 6.11979,2.18892c2.24028,0.67536 4.55487,1.0737 6.89242,1.18626c0.66061,-0.02677 1.22505,-0.48412 1.38897,-1.12451c0.16392,-0.64039 -0.11201,-1.31248 -0.67864,-1.65344c-1.01905,-0.58411 -2.0698,-1.1114 -3.14732,-1.57912c-1.10102,-0.44696 -2.19165,-0.90376 -3.30961,-1.31138l-3.21617,-1.195l-1.44689,-0.56116l-1.06113,-0.43713c-3.70411,-1.51793 -7.27545,-3.34294 -10.67576,-5.45536c-3.2118,-2.00095 -6.17662,-4.37347 -8.83272,-7.06836c-2.85663,-2.8692 -5.38706,-6.04548 -7.54538,-9.47038c-5.10292,-7.75356 -8.62617,-16.4371 -10.36868,-25.55396c-1.60918,-9.05292 -1.14801,-18.35282 1.35018,-27.20193c0.14152,-0.49395 -0.57701,-0.64586 -0.7535,-0.19288l-0.93819,2.45884c-3.23202,8.63328 -4.25544,17.93755 -2.97793,27.06696c0.82563,5.43514 2.34027,10.74351 4.50788,15.79562l-0.36008,3.37517c-0.47264,3.15716 -0.61526,6.35529 -0.42565,9.54196zM91.45574,196.75771c10.15448,-0.89721 20.14559,-3.13421 29.71323,-6.65254c8.6229,-4.06802 16.16609,-10.11132 22.01704,-17.63921l0.41309,-0.52619l0.06994,-0.0907l0.11529,-0.15463l0.76497,-1.06004c0.52892,-0.75568 1.02616,-1.53268 1.49826,-2.32443c0.4262,-0.71416 0.81961,-1.44689 1.19008,-2.19056l0.52291,-1.11686l0.24097,-0.56335l0.02568,-0.06229l0.12677,-0.32785c0.60706,-1.60918 1.06277,-3.27136 1.36165,-4.96523l0.19234,-1.25674l0.01038,-0.07759l0.01803,-0.16939l0.05792,-0.64695c0.07868,-0.96168 0.10054,-1.92773 0.0918,-2.89215c-0.19179,-4.58711 -0.90923,-9.13652 -2.13756,-13.56026c-3.74236,-15.69344 -11.24293,-30.24215 -21.8564,-42.39322c-4.56526,-5.17997 -8.74529,-10.68723 -12.50678,-16.47699c-3.88006,-5.7384 -6.37442,-12.29914 -7.28802,-19.16533c-0.61635,-6.97219 1.85452,-13.86406 6.76018,-18.85661c5.51601,-6.06023 13.44114,-9.35345 21.62745,-8.98735c4.47455,0.26064 8.55733,2.63861 10.99158,6.40229c2.1086,4.17129 2.88231,8.89064 2.21515,13.51654l-0.25736,3.03203c-0.06338,0.65569 -1.03818,0.71033 -1.04965,0.01912c0.26719,-4.63465 -0.5169,-9.26985 -2.29492,-13.55862c-1.02124,-2.0321 -2.64299,-3.70083 -4.64448,-4.77999c-1.59989,-0.76825 -3.35113,-1.17205 -5.12587,-1.18134c-7.63444,0.07377 -14.80935,3.66149 -19.44782,9.7261c-0.46172,0.57209 -0.89119,1.16986 -1.28625,1.79004c-0.47538,0.73219 -0.90704,1.49225 -1.29226,2.2758l-0.48521,1.06441l-0.01749,0.03497l-0.04863,0.12841l-0.19507,0.53767c-0.26719,0.76935 -0.4874,1.55399 -0.65897,2.34956l-0.20654,1.09282l-0.08032,0.54641l-0.00492,0.03333l-0.01038,0.106c-0.07704,0.79557 -0.11147,1.59497 -0.10218,2.39437c0.00492,0.74366 0.05464,1.48569 0.12731,2.22498l0.10928,0.89994l0.06065,0.37921l0.13988,0.74421c0.32511,1.57858 0.76006,3.13257 1.30209,4.6505c0.26118,0.75131 0.55078,1.4917 0.85404,2.22607l0.14261,0.3355l0.18578,0.41746l0.60105,1.28734c1.5376,3.10962 3.30523,6.10067 5.28816,8.94746c0.98354,1.43924 2.01188,2.84844 3.06372,4.23796l0.75514,0.98682l0.24097,0.31091l0.28195,0.35899l1.64852,2.05505c2.25394,2.77084 4.64011,5.43132 6.86619,8.22402c7.09623,8.88572 12.72316,18.85114 16.6655,29.51761c1.93047,5.2816 3.40851,10.71838 4.41772,16.25078c0.92289,4.15217 1.29007,8.4087 1.09282,12.65759c-0.79339,7.4421 -3.94672,14.43561 -8.99992,19.95653c-6.17771,7.57816 -14.00012,13.64932 -22.87327,17.7545c-9.65124,4.03141 -20.07893,5.86407 -30.52683,5.3652c-1.7272,-0.06338 -2.36213,-2.85718 -0.47101,-3.16207zM152.09959,72.82099c-0.11201,1.6977 0.08032,3.4014 0.56881,5.0308c0.30216,1.93156 1.0431,3.76804 2.16597,5.36848c0.22676,0.21856 0.55242,0.30107 0.85622,0.21692c0.3038,-0.08469 0.53985,-0.32293 0.62181,-0.62728c0.08524,-1.22287 -0.05847,-2.45065 -0.42456,-3.62051c-0.18032,-0.98846 -0.29451,-1.98729 -0.34151,-2.99105c-0.15463,-1.49498 0.00164,-3.00525 0.45953,-4.43685l0.21856,-0.6311l0.15299,-0.36118l0.56936,-1.10976c0.46117,-0.79776 0.96605,-1.58514 1.50263,-2.33481c2.39983,-2.98777 4.64066,-6.10012 6.71319,-9.32339c1.78676,-2.98285 2.68123,-6.41485 2.57742,-9.89002c-0.51854,-3.89208 -2.11133,-7.56286 -4.59913,-10.60035c-0.38904,-0.56062 -1.30155,-0.03497 -0.91906,0.54641c1.29445,1.97527 2.16597,4.19698 2.55993,6.52523c0.13278,6.71319 -2.63752,13.15701 -7.60056,17.67964c-1.42176,1.57858 -2.64408,3.32654 -3.63909,5.20401c-0.80213,1.6824 -1.29117,3.49702 -1.44252,5.35482zM150.38387,51.04765l-0.06502,0.1978l-0.00273,-0.00109c-0.15955,0.624 -0.06502,1.28625 0.26392,1.84086c0.32839,0.55406 0.86387,0.95512 1.48842,1.11413c0.62455,0.15354 1.28461,0.05901 1.84086,-0.26392c0.62455,-0.35681 1.08189,-0.94584 1.27259,-1.63923c0.12076,-0.43877 0.11802,-0.90267 -0.00765,-1.34034c-0.12622,-0.4191 -0.35134,-0.80158 -0.65569,-1.11577c-0.83328,-0.84912 -2.1392,-1.01851 -3.16153,-0.40981c-0.4497,0.27867 -0.77754,0.71689 -0.91852,1.22669zM145.60606,66.24276c-0.14644,1.68677 -0.08142,3.38501 0.19234,5.05593c0.27594,1.64579 0.77426,3.24568 1.48132,4.75705c0.70159,1.33652 1.58787,2.56813 2.6326,3.65767c0.1743,0.19889 0.51636,-0.06612 0.36446,-0.28468c-0.79284,-1.30865 -1.32122,-2.76046 -1.55454,-4.27293c-0.29178,-1.48022 -0.46554,-2.98121 -0.51854,-4.48876c-0.09508,-1.5376 -0.02841,-3.08121 0.19889,-4.60514c0.47592,-1.30046 0.55679,-2.71183 0.23386,-4.05819c-0.28359,-0.47319 -0.89557,-0.62946 -1.37149,-0.3508c-1.47203,0.7841 -1.55344,3.14295 -1.6589,4.58984zM17.71279,80.58439c7.81585,5.89904 14.22742,13.45698 18.77355,22.1296c2.48944,4.29588 4.82917,8.67535 7.29676,12.98379c2.29164,4.003 4.8095,7.87267 7.54046,11.5899c2.21515,3.02329 4.63684,5.88921 7.24758,8.57864c2.4807,2.55337 5.1756,4.89037 8.05463,6.98476c6.5908,4.23468 13.57774,7.81858 20.86248,10.70144c1.03818,0.47538 0.60105,2.36541 -0.571,2.23318c-16.93816,-3.24786 -31.71691,-13.49687 -40.69498,-28.22262c-4.97342,-7.60931 -9.49223,-15.50548 -13.53403,-23.64753c-4.00191,-8.31909 -9.14035,-16.0415 -15.26779,-22.94649c-0.18523,-0.19179 0.05901,-0.54204 0.29233,-0.38467zM21.33986,91.85628c-0.15955,-0.25517 -0.60214,-0.08579 -0.49559,0.21365c4.7565,13.4089 7.2749,27.58933 12.92041,40.69662c1.79168,4.32429 4.16037,8.38685 7.04159,12.07566c2.58343,3.20797 5.61272,6.02963 8.995,8.37974c3.4014,2.32825 7.05743,4.25981 10.8976,5.75698c3.96694,1.68677 8.18522,2.70746 12.48438,3.02055c0.52729,-0.02076 0.97807,-0.38522 1.10867,-0.89666c0.13059,-0.51089 -0.09016,-1.04747 -0.54259,-1.31849c-4.51499,-2.09603 -9.39607,-3.46205 -13.80833,-5.47394c-4.15763,-1.82446 -8.02239,-4.2538 -11.46969,-7.20824c-3.04951,-2.68724 -5.67064,-5.82418 -7.77323,-9.30263c-2.57141,-4.49094 -4.69913,-9.22176 -6.3542,-14.12524c-1.96653,-5.4264 -3.65767,-10.94514 -5.66354,-16.3546c-0.99774,-2.69325 -2.02117,-5.37012 -3.22655,-7.97759c-1.21303,-2.57906 -2.58725,-5.07943 -4.11392,-7.48582zM21.99938,141.44244c-1.51246,-4.77289 -2.2523,-9.75724 -2.19056,-14.764c0.10983,-4.98654 0.81743,-9.94193 2.1075,-14.76017c0.07868,-0.32785 0.61089,-0.2732 0.5934,0.06885c-0.24479,5.19144 -0.13278,10.39326 0.33604,15.56941c0.38358,5.05047 1.60317,10.00149 3.60958,14.65198c1.70371,3.97623 4.11993,7.60657 7.13065,10.71291c1.15894,1.18571 2.45666,2.22717 3.86476,3.10252c0.69503,0.43713 1.41138,0.83819 2.14739,1.2021l1.11304,0.51909l0.45898,0.19343l0.53603,0.20272c1.31302,0.47538 2.65719,0.86005 4.02322,1.15183l2.12499,0.39888l1.08681,0.1743l0.6617,0.09289l0.43713,0.05464c1.5365,0.17649 3.07957,0.31036 4.81442,0.48139c1.79605,0.0989 3.58554,0.29561 5.36028,0.58848c0.5557,0.15518 0.9431,0.65733 0.9513,1.23434c0.0082,0.57646 -0.365,1.09009 -0.91578,1.26057c-2.0627,0.46609 -4.16911,0.70705 -6.28371,0.71908c-2.02937,0.05792 -4.05983,-0.05136 -6.07116,-0.32785c-3.61778,-0.41636 -7.1383,-1.44471 -10.41075,-3.04186c-7.50986,-4.22156 -13.06849,-11.21616 -15.48526,-19.48553zM19.16679,151.02428c-0.15136,0.02295 -0.26392,0.15136 -0.2661,0.30435c-0.24862,3.9112 0.86169,7.78798 3.14295,10.9741c4.38767,5.68594 10.94623,9.28733 18.09874,9.93756c3.68171,0.51636 7.41588,0.53821 11.1036,0.06448c1.85288,-0.24042 3.68554,-0.61854 5.48213,-1.13107c1.75234,-0.46281 3.3861,-1.29445 4.79147,-2.43917c0.37538,-0.39451 0.47975,-0.97534 0.26501,-1.47585c-0.21474,-0.50051 -0.7076,-0.82508 -1.25237,-0.82453c-0.71252,0.04153 -1.41957,0.14535 -2.11406,0.30927l-2.0097,0.32785c-1.30264,0.21966 -2.59272,0.52892 -3.8959,0.75623c-3.43637,0.57865 -6.92684,0.76716 -10.40529,0.56171c-3.3178,-0.21365 -6.58424,-0.92234 -9.69222,-2.10259c-3.07028,-1.2103 -5.82418,-3.10416 -8.05354,-5.53787c-2.25121,-2.80527 -3.90246,-6.04275 -4.85103,-9.5119c-0.04699,-0.14535 -0.19288,-0.2355 -0.34369,-0.21255zM35.71372,177.40332c-2.03374,-0.33768 -3.95437,-1.16713 -5.59524,-2.41568c-0.72126,-0.5781 -2.02937,0.21419 -1.38733,1.08025c1.42285,2.12062 3.53199,3.68717 5.97335,4.43685c2.30148,0.71744 4.73246,0.9207 7.12136,0.59559c2.58834,-0.34205 5.12423,-1.00649 7.54756,-1.97855c1.24964,-0.48849 2.47961,-1.02233 3.68171,-1.61847c1.25346,-0.43166 2.23591,-1.41903 2.66156,-2.67468c0.16447,-0.70596 -0.23933,-1.42012 -0.9289,-1.64251l-0.96496,-0.22184l-1.06058,0.17649c-0.6322,0.20053 -1.24418,0.46117 -1.82774,0.77699c-0.92179,0.43276 -2.00205,0.92179 -2.69872,1.20811c-2.11625,0.88518 -4.31172,1.56765 -6.55692,2.03866c-1.95943,0.42565 -3.97786,0.50652 -5.96516,0.23878zM35.40391,187.78839c-0.17212,0.10218 -0.25627,0.30599 -0.206,0.49997c0.19015,1.27095 0.99173,2.36759 2.14466,2.93531c1.25838,0.52947 2.63752,0.70651 3.98879,0.51199c2.37415,-0.40871 4.66634,-1.20046 6.78641,-2.34465l0.92453,0.72618c0.72891,0.52619 1.47312,1.03545 2.24465,1.49662c1.81463,1.10867 3.72488,2.05177 5.70835,2.81893c3.33638,1.49443 7.00224,2.09931 10.64188,1.75616c0.31036,-0.04972 0.22075,-0.53985 -0.07978,-0.53439c-1.63213,-0.08524 -3.2271,-0.51854 -4.67782,-1.27095c-1.74578,-0.75787 -3.4402,-1.62885 -5.07232,-2.60801c-1.70425,-1.02069 -3.43692,-2.00259 -5.09199,-3.10416c-0.68793,-0.45789 -1.37914,-0.90868 -2.04412,-1.40045c-0.59176,-0.56171 -1.38132,-0.86661 -2.19711,-0.84803c-0.48357,0.03552 -0.90923,0.33222 -1.10867,0.77426c-1.99549,0.37265 -3.93688,1.00594 -5.92964,1.39881c-0.96988,0.25189 -1.97309,0.34806 -2.97302,0.28413c-0.51581,-0.07814 -1.02179,-0.20818 -1.51137,-0.38795c-0.6322,-0.23878 -0.52729,-0.12404 -1.00977,-0.64531c-0.14644,-0.13715 -0.36555,-0.16064 -0.53767,-0.05847z" fill-rule="evenodd"></path></svg>