<svg width="100%" viewBox="0 0 200 200" version="1.1" xmlns="http://www.w3.org/2000/svg" xmlns:xlink="http://www.w3.org/1999/xlink"><path d="M96.66667,3.33333v10.23743c-10.204,1.46607 -18.29667,9.56037 -19.76267,19.76257h-40.14267c-0.065,-0.0019 -0.13,-0.0019 -0.19533,0h-33.23267c-1.84,0 -3.33333,1.49 -3.33333,3.33333c0,1.84333 1.49333,3.33333 3.33333,3.33333h27.94167l-30.86333,61.72667c-0.26236,0.47633 -0.41167,1.02367 -0.41167,1.60667c0,12.59 14.28,36.66667 36.66667,36.66667c22.38667,0 36.66667,-24.07667 36.66667,-36.66667c0,-0.465 -0.095,-0.90767 -0.26667,-1.30967c-0.027,-0.06267 -0.05567,-0.125 -0.08667,-0.187l-30.91833,-61.83667h34.84233c1.46633,10.205 9.563,18.301 19.771,19.76367c-0.00567,0.078 -0.00833,0.157 -0.00833,0.23633v107.65367l-44.45333,15.87633c-1.32667,0.47 -2.21333,1.72667 -2.21333,3.13667v10c0,1.84333 1.49333,3.33333 3.33333,3.33333h93.33333c1.84,0 3.33333,-1.49 3.33333,-3.33333v-10c0,-1.41 -0.88667,-2.66667 -2.21,-3.13667l-44.45667,-15.87733v-107.65267c0,-0.07933 -0.00267,-0.15833 -0.00833,-0.23633c10.206,-1.46333 18.304,-9.559 19.77067,-19.76367h34.846l-30.86333,61.72667c-0.26233,0.47633 -0.41167,1.02367 -0.41167,1.60667c0,12.59 14.28,36.66667 36.66667,36.66667c22.38667,0 36.66667,-24.07667 36.66667,-36.66667c0,-0.502 -0.11067,-0.978 -0.30933,-1.40467c-0.014,-0.03067 -0.02867,-0.06133 -0.044,-0.092l-30.91833,-61.83667h27.93833c1.84,0 3.33333,-1.49 3.33333,-3.33333c0,-1.84333 -1.49333,-3.33333 -3.33333,-3.33333h-33.24067c-0.065,-0.0019 -0.13,-0.0019 -0.195,0h-40.13533c-1.46633,-10.20197 -9.56033,-18.2961 -19.76233,-19.76247v-10.23753c0,-1.84333 -1.49333,-3.33333 -3.33333,-3.33333c-1.84,0 -3.33333,1.49 -3.33333,3.33333zM100,53.33333c-9.19,0 -16.66667,-7.47667 -16.66667,-16.66667c0,-9.19 7.47667,-16.66667 16.66667,-16.66667c9.19,0 16.66667,7.47667 16.66667,16.66667c0,9.19 -7.47667,16.66667 -16.66667,16.66667zM36.66833,44.12667l27.93667,55.87333h-55.87333zM163.335,44.12667l27.93667,55.87333h-55.87333zM7.08333,106.66667c2.22333,9.95333 13.24667,26.66667 29.58333,26.66667c16.33667,0 27.36,-16.71333 29.58333,-26.66667zM133.75,106.66667c2.22333,9.95333 13.25,26.66667 29.58333,26.66667c16.33333,0 27.36,-16.71333 29.58333,-26.66667zM143.33333,189.01667v4.31667h-86.66667v-4.31667l43.33333,-15.48333z" fill-rule="evenodd"></path></svg>