<svg width="100%" viewBox="0 0 200 200" version="1.1" xmlns="http://www.w3.org/2000/svg" xmlns:xlink="http://www.w3.org/1999/xlink"><path d="M109.67742,0h90.32258v64.51613h-83.87097v19.35484c7.11613,0 12.90323,5.7871 12.90323,12.90323c0,7.11613 -5.7871,12.90323 -12.90323,12.90323v90.32258h-6.45161v-90.32258h-22.58065c-1.13226,0 -2.21935,-0.19677 -3.22581,-0.55161v90.87419h-64.51613v-61.29032c-10.67419,0 -19.35484,-8.68065 -19.35484,-19.35484v-32.25806c0,-11.37097 6.5871,-21.20645 16.12903,-25.96774v-25.64516c0,-19.56452 15.91935,-35.48387 35.48387,-35.48387c19.56452,0 35.48387,15.91935 35.48387,35.48387v25.6129c8.63548,4.30323 14.83871,12.77742 15.94839,22.77419h6.63226zM51.6129,6.45161c-16.00968,0 -29.03226,13.02258 -29.03226,29.03226v23.32903c2.07742,-0.47419 4.23226,-0.74839 6.45161,-0.74839h10.11613c-7.94516,-4.40323 -13.34194,-12.87097 -13.34194,-22.58065c0,-14.22903 11.57742,-25.80645 25.80645,-25.80645c14.22903,0 25.80645,11.57742 25.80645,25.80645c0,9.70968 -5.39677,18.17742 -13.34194,22.58065h10.11613c2.21935,0 4.37419,0.27742 6.45161,0.75161v-23.33226c0,-16.00968 -13.02258,-29.03226 -29.03226,-29.03226zM193.54839,19.35484v-12.90323h-77.41935v12.90323zM59.67742,38.70968c-6.22581,0 -11.29032,-5.06452 -11.29032,-11.29032c0,-5.02581 3.32258,-9.24516 7.87097,-10.70323c-1.49032,-0.36774 -3.04194,-0.5871 -4.64516,-0.5871c-10.67419,0 -19.35484,8.68065 -19.35484,19.35484c0,10.67419 8.68065,19.35484 19.35484,19.35484c10.67419,0 19.35484,-8.68065 19.35484,-19.35484c0,-1.60323 -0.21935,-3.15484 -0.5871,-4.64516c-1.45806,4.54839 -5.67742,7.87097 -10.70323,7.87097zM59.67742,32.25806c2.66774,0 4.83871,-2.17097 4.83871,-4.83871c0,-2.66774 -2.17097,-4.83871 -4.83871,-4.83871c-2.66774,0 -4.83871,2.17097 -4.83871,4.83871c0,2.66774 2.17097,4.83871 4.83871,4.83871zM193.54839,25.80645h-77.41935v12.90323h77.41935zM116.12903,45.16129v12.90323h77.41935v-12.90323zM83.87097,100c0,1.78065 1.44516,3.22581 3.22581,3.22581h9.67742v-16.12903c0,-12.44839 -10.13226,-22.58065 -22.58065,-22.58065h-45.16129c-12.44839,0 -22.58065,10.13226 -22.58065,22.58065v25.80645h12.90323v-32.25806h6.45161v45.16129h6.45161v-3.22581h6.45161v3.22581h9.67742v-3.22581h6.45161v3.22581h9.67742v-3.22581h6.45161v3.22581h6.45161v-45.16129h6.45161zM29.03226,112.90323h45.16129v-41.93548h-45.16129zM35.48387,77.41935h32.25806v3.22581h-19.35484v22.58065h19.35484v3.22581h-32.25806zM45.16129,83.87097h-6.45161v6.45161h6.45161zM67.74194,96.77419h-12.90323v-9.67742h12.90323zM103.22581,103.22581h6.45161v-12.90323h-6.45161zM116.12903,103.22581c3.55806,0 6.45161,-2.89355 6.45161,-6.45161c0,-3.55806 -2.89355,-6.45161 -6.45161,-6.45161zM45.16129,93.54839h-6.45161v6.45161h6.45161zM19.35484,119.35484h-12.90323c0,7.11613 5.7871,12.90323 12.90323,12.90323zM38.70968,132.25806v3.22581h-6.45161v-3.22581h-6.45161v25.80645h9.67742v6.45161h-9.67742v16.12903h22.58065v-16.12903h-6.45161v-6.45161h6.45161v-12.90323h6.45161v12.90323h9.67742v6.45161h-9.67742v16.12903h22.58065v-16.12903h-6.45161v-6.45161h6.45161v-25.80645h-6.45161v3.22581h-6.45161v-3.22581h-9.67742v3.22581h-6.45161v-3.22581zM25.80645,187.09677v6.45161h22.58065v-6.45161zM54.83871,187.09677v6.45161h22.58065v-6.45161z" fill-rule="evenodd"></path></svg>