<svg width="100%" viewBox="0 0 200 200" version="1.1" xmlns="http://www.w3.org/2000/svg" xmlns:xlink="http://www.w3.org/1999/xlink"><path d="M13.2714,199.2219c0.46855,0.46955 1.10527,0.73443 1.76924,0.73443c0.66371,0 1.30069,-0.26489 1.76924,-0.73443l181.77948,-182.33374c0.97383,-0.97483 0.97383,-2.5539 0,-3.52873l-12.54085,-12.58133c-0.46855,-0.4698 -1.10552,-0.73443 -1.76924,-0.73443c-0.66396,0 -1.30069,0.26464 -1.76924,0.73443l-181.77973,182.33499c-0.97373,0.97483 -0.97373,2.55365 0,3.52873zM94.63037,0.04366c6.36676,0 11.54528,5.17227 11.54528,11.52954c0,6.35826 -5.17852,11.53054 -11.54528,11.53054c-6.36701,0 -11.54553,-5.17227 -11.54553,-11.53054c0,-6.35726 5.17852,-11.52954 11.54553,-11.52954zM88.08269,11.5732c0,3.60195 2.93823,6.53269 6.54768,6.53269c3.6092,0 6.54743,-2.93074 6.54743,-6.53269c0,-3.60195 -2.93823,-6.53169 -6.54743,-6.53169c-3.60945,0 -6.54768,2.92974 -6.54768,6.53169zM184.27927,6.08231l9.01212,9.04136l-38.79155,38.90975l-9.01237,-9.04111zM128.93435,13.25447c-0.38558,0.98708 -1.32993,1.59106 -2.328,1.59106c-0.30262,0 -0.61024,-0.05598 -0.91036,-0.17193c-1.2837,-0.50278 -1.92067,-1.95241 -1.41789,-3.23711l1.36416,-3.491c0.50278,-1.2872 1.94991,-1.91817 3.23836,-1.41914c1.2837,0.50278 1.92067,1.95241 1.41789,3.23711zM56.72419,8.03822c1.26895,-0.55876 2.74057,0.02199 3.29208,1.28245l1.5081,3.43102c0.55651,1.26296 -0.01699,2.73807 -1.2812,3.29333c-0.32686,0.14394 -0.66871,0.21241 -1.00282,0.21241c-0.96159,0 -1.87919,-0.55901 -2.28926,-1.49486l-1.5081,-3.43102c-0.55626,-1.26296 0.01724,-2.73807 1.2812,-3.29333zM122.48438,29.77086c-0.38558,0.98708 -1.32993,1.59106 -2.328,1.59106c-0.30262,0 -0.60999,-0.05623 -0.91011,-0.17218c-1.2837,-0.50253 -1.92067,-1.95216 -1.41789,-3.23711l2.76481,-7.0782c0.50278,-1.28595 1.94741,-1.91942 3.23836,-1.41914c1.2837,0.50278 1.92067,1.95241 1.41789,3.23736zM62.23931,20.58057c1.2692,-0.55901 2.73807,0.01949 3.29208,1.2822l3.00421,6.83181c0.55626,1.26296 -0.01724,2.73682 -1.2812,3.29333c-0.32711,0.14394 -0.66871,0.21241 -1.00307,0.21241c-0.96159,0 -1.87894,-0.55776 -2.28901,-1.49486l-3.00421,-6.83181c-0.55626,-1.26296 0.01724,-2.73682 1.2812,-3.29308zM44.24181,27.63053v-0.001c2.18406,2.17781 3.38479,5.07332 3.38479,8.15424c0,3.08117 -1.20073,5.97643 -3.38479,8.15449c-2.25003,2.24628 -5.20526,3.3703 -8.16049,3.3703c-2.95773,0 -5.91295,-1.12402 -8.16299,-3.37155c-2.18181,-2.17681 -3.38229,-5.07232 -3.38229,-8.15324c0,-3.08092 1.20048,-5.97643 3.38454,-8.15424c4.49781,-4.49531 11.82366,-4.49157 16.32122,0.001zM92.13144,64.83502v-33.87317c0,-1.38016 1.11752,-2.49892 2.49892,-2.49892c1.38116,0 2.49892,1.11877 2.49892,2.49892v33.87317c0,1.38016 -1.11777,2.49892 -2.49892,2.49892c-1.38141,0 -2.49892,-1.11877 -2.49892,-2.49892zM31.44957,40.39979c2.5524,2.55015 6.70586,2.5489 9.26351,0.00125c1.23472,-1.23372 1.91568,-2.87351 1.91568,-4.61726c0,-1.7435 -0.68096,-3.38354 -1.91568,-4.61576v-0.00125c-1.2787,-1.27395 -2.95523,-1.91218 -4.63176,-1.91218c-1.67903,0 -3.35306,0.63698 -4.62951,1.91218c-1.23722,1.23347 -1.91792,2.87351 -1.91792,4.61701c0,1.74375 0.68071,3.38354 1.91568,4.61601zM116.03465,46.28825c-0.38558,0.98732 -1.32993,1.59131 -2.32825,1.59131c-0.30237,0 -0.60999,-0.05623 -0.91011,-0.17218c-1.2837,-0.50253 -1.92067,-1.95216 -1.41789,-3.23711l2.76506,-7.0782c0.50253,-1.2862 1.94741,-1.91568 3.23836,-1.41914c1.28345,0.50278 1.92042,1.95241 1.41764,3.23711zM70.9758,46.6496l-3.00646,-6.83181c-0.55626,-1.26296 0.01699,-2.73807 1.2812,-3.29458c1.2667,-0.55876 2.73557,0.01974 3.29208,1.2812l3.00646,6.83181c0.55651,1.26296 -0.01699,2.73807 -1.2812,3.29458c-0.32686,0.14394 -0.66871,0.21216 -1.00282,0.21216c-0.96159,0 -1.87669,-0.55751 -2.28926,-1.49336zM75.57607,75.21155c-0.48804,0.48929 -1.13001,0.73318 -1.76924,0.73318c-0.63947,0 -1.27895,-0.24389 -1.76449,-0.73094l-23.99367,-23.95319c-0.97858,-0.97483 -0.97858,-2.5564 -0.00475,-3.53373c0.97608,-0.97858 2.5624,-0.97608 3.53373,-0.0025l23.99342,23.95344c0.97858,0.97483 0.97858,2.55615 0.005,3.53373zM141.95924,48.53129l9.01237,9.04136l-135.93097,136.34504l-9.01237,-9.04036zM81.27912,63.87368c-0.32711,0.14394 -0.66871,0.21216 -1.00307,0.21216c-0.96134,0 -1.87894,-0.55751 -2.28901,-1.49461l-3.00396,-6.83306c-0.55651,-1.26296 0.01699,-2.73807 1.2812,-3.29333c1.26645,-0.55751 2.74032,0.01949 3.29183,1.28245l3.00421,6.83306c0.55626,1.26296 -0.01724,2.73807 -1.2812,3.29333zM108.65983,60.80975c-0.30262,0 -0.60999,-0.05623 -0.90786,-0.17218c-1.28595,-0.50128 -1.92292,-1.95091 -1.42014,-3.23586l1.36166,-3.49075c0.50278,-1.28745 1.95716,-1.91817 3.23586,-1.42039c1.2862,0.50153 1.92292,1.95116 1.42039,3.23586l-1.36166,3.491c-0.38558,0.98708 -1.33018,1.59231 -2.32825,1.59231zM12.59769,64.80953c-0.30262,0 -0.60749,-0.05498 -0.90536,-0.17093l-3.4945,-1.35916c-1.2862,-0.50028 -1.92317,-1.94866 -1.42289,-3.23486c0.49779,-1.28845 1.94741,-1.92542 3.23361,-1.42389l3.4945,1.35941c1.2862,0.50028 1.92292,1.94841 1.42289,3.23461c-0.38333,0.98957 -1.32768,1.59481 -2.32825,1.59481zM20.98033,68.25279c-1.28595,-0.50153 -1.92292,-1.94991 -1.42264,-3.23586c0.49779,-1.28845 1.94991,-1.92192 3.23336,-1.42289l6.96475,2.71008c1.2862,0.50153 1.92317,1.94991 1.42289,3.23586c-0.38333,0.98832 -1.32768,1.59356 -2.32825,1.59356c-0.30262,0 -0.60749,-0.05473 -0.90536,-0.17068zM187.27348,72.24757c-0.32711,0.14294 -0.66621,0.21116 -1.00057,0.21116c-0.96384,0 -1.87894,-0.55876 -2.29151,-1.49711c-0.55401,-1.26296 0.02199,-2.73682 1.2862,-3.29208l3.43352,-1.5056c1.27395,-0.55276 2.73807,0.02299 3.29208,1.28595c0.55401,1.26296 -0.02199,2.73682 -1.2862,3.29208zM85.79142,76.62694c-0.96159,0 -1.87919,-0.55901 -2.28926,-1.49486l-1.5081,-3.43102c-0.55626,-1.26296 0.01724,-2.73807 1.2812,-3.29333c1.26895,-0.55876 2.73807,0.02199 3.29208,1.28245l1.5081,3.43102c0.55651,1.26296 -0.01699,2.73807 -1.2812,3.29333c-0.32686,0.14394 -0.66871,0.21241 -1.00282,0.21241zM37.23308,74.57807c-1.28595,-0.50128 -1.92292,-1.94966 -1.42264,-3.23586c0.49779,-1.2872 1.94966,-1.92542 3.23336,-1.42264l6.96475,2.71008c1.2862,0.50128 1.92317,1.94966 1.42289,3.23586c-0.38309,0.98832 -1.32768,1.59356 -2.32825,1.59356c-0.30262,0 -0.60749,-0.05498 -0.90536,-0.17093zM176.4309,71.54613c1.27145,-0.55276 2.73582,0.02299 3.29208,1.28595c0.55401,1.26296 -0.02199,2.73682 -1.28595,3.29208l-6.62815,2.9065c-0.32686,0.14269 -0.66621,0.21116 -1.00057,0.21116c-0.96384,0 -1.87894,-0.55901 -2.29151,-1.49736c-0.55376,-1.26271 0.02199,-2.73682 1.2862,-3.29183zM61.35594,83.78436c-0.30262,0 -0.60749,-0.05473 -0.90536,-0.17193l-6.96475,-2.71133c-1.28595,-0.50028 -1.92292,-1.94866 -1.42264,-3.23461c0.49779,-1.28745 1.94991,-1.92792 3.23336,-1.42164l6.96475,2.71133c1.2862,0.50028 1.92317,1.94866 1.42289,3.23461c-0.38309,0.98832 -1.32768,1.59356 -2.32825,1.59356zM156.3468,85.81348c-0.32686,0.14294 -0.66621,0.21116 -1.00057,0.21116c-0.96384,0 -1.87894,-0.55876 -2.29151,-1.49711c-0.55376,-1.26296 0.02199,-2.73682 1.2862,-3.29208l6.6279,-2.9065c1.27145,-0.55026 2.73807,0.02449 3.29208,1.2862c0.55401,1.26271 -0.02199,2.73682 -1.28595,3.29183zM73.23083,88.58704l-3.49225,-1.35916c-1.28595,-0.50153 -1.92292,-1.94991 -1.42264,-3.23611c0.49779,-1.28845 1.94991,-1.92167 3.23336,-1.42264l3.49225,1.35916c1.28595,0.50153 1.92292,1.94991 1.42264,3.23611c-0.38309,0.98832 -1.32743,1.59356 -2.328,1.59356c-0.30262,0 -0.60774,-0.05498 -0.90536,-0.17093zM11.82902,82.70332c6.36676,0 11.54528,5.17227 11.54528,11.52954c0,6.35701 -5.17852,11.52929 -11.54528,11.52929c-6.36701,0 -11.54528,-5.17227 -11.54528,-11.52929c0,-6.35726 5.17827,-11.52954 11.54528,-11.52954zM144.07908,91.19592c-0.32686,0.14269 -0.66621,0.21091 -1.00032,0.21091c-0.96408,0 -1.87919,-0.55876 -2.29151,-1.49711c-0.55401,-1.26296 0.02199,-2.73682 1.28595,-3.29208l3.43352,-1.5056c1.27395,-0.55276 2.73807,0.02324 3.29208,1.28595c0.55401,1.26296 -0.02199,2.73682 -1.28595,3.29208zM5.28159,94.23286c0,3.60195 2.93823,6.53144 6.54743,6.53144c3.6092,0 6.54743,-2.92949 6.54743,-6.53144c0,-3.60195 -2.93823,-6.53169 -6.54743,-6.53169c-3.6092,0 -6.54743,2.92974 -6.54743,6.53169zM65.18255,91.73393c1.38116,0 2.49892,1.11877 2.49892,2.49892c0,1.37991 -1.11777,2.49892 -2.49892,2.49892h-33.93314c-1.38116,0 -2.49892,-1.11902 -2.49892,-2.49892c0,-1.38016 1.11777,-2.49892 2.49892,-2.49892zM176.90919,105.32308c0,-6.36076 5.17852,-11.53678 11.54553,-11.53678c6.36676,0 11.54528,5.17602 11.54528,11.53678c0,6.36201 -5.17852,11.53803 -11.54528,11.53803c-6.36701,0 -11.54553,-5.17602 -11.54553,-11.53803zM181.90704,105.32308c0,3.6067 2.93823,6.54018 6.54768,6.54018c3.6092,0 6.54743,-2.93349 6.54743,-6.54018c0,-3.6057 -2.93823,-6.53893 -6.54743,-6.53893c-3.60945,0 -6.54768,2.93324 -6.54768,6.53893zM135.09869,107.82201c-1.38116,0 -2.49892,-1.11902 -2.49892,-2.49892c0,-1.38016 1.11777,-2.49892 2.49892,-2.49892h33.93314c1.38116,0 2.49892,1.11877 2.49892,2.49892c0,1.37991 -1.11777,2.49892 -2.49892,2.49892zM52.77089,109.85113l3.43102,-1.5046c1.27395,-0.55151 2.73807,0.02324 3.29208,1.2862c0.55401,1.26271 -0.02199,2.73682 -1.28595,3.29208l-3.43127,1.50435c-0.32686,0.14269 -0.66621,0.21116 -1.00057,0.21116c-0.96384,0 -1.87894,-0.55876 -2.29151,-1.49711c-0.55401,-1.26296 0.02199,-2.73707 1.2862,-3.29208zM127.05291,110.9774l3.492,1.36041c1.2862,0.50028 1.92067,1.94991 1.42039,3.23461c-0.38558,0.98832 -1.32768,1.59356 -2.32825,1.59356c-0.30237,0 -0.60999,-0.05598 -0.90761,-0.17193l-3.49225,-1.36041c-1.28595,-0.50028 -1.92067,-1.94991 -1.42039,-3.23486c0.50278,-1.2872 1.95241,-1.92292 3.23611,-1.42139zM37.3063,116.62797l6.6279,-2.904c1.27395,-0.55151 2.74057,0.02424 3.29208,1.28595c0.55401,1.26421 -0.02199,2.73807 -1.28595,3.29208l-6.62815,2.904c-0.32686,0.14294 -0.66621,0.21116 -1.00057,0.21116c-0.96384,0 -1.88144,-0.56001 -2.29126,-1.49711c-0.55401,-1.26421 0.02174,-2.73807 1.28595,-3.29208zM136.59705,117.37589c0.50028,-1.2872 1.94266,-1.92917 3.23586,-1.42139l6.96475,2.71233c1.2862,0.50028 1.92067,1.94866 1.42039,3.23461c-0.38309,0.98857 -1.32768,1.59381 -2.328,1.59381c-0.30262,0 -0.60774,-0.05498 -0.90786,-0.17218l-6.96475,-2.71233c-1.2862,-0.50028 -1.92067,-1.94866 -1.42039,-3.23486zM23.85009,127.98183c-0.32686,0.14269 -0.66621,0.21091 -1.00057,0.21091c-0.96384,0 -1.88144,-0.56001 -2.29126,-1.49711c-0.55401,-1.26421 0.02174,-2.73807 1.28595,-3.29208l6.6279,-2.904c1.27395,-0.55151 2.74057,0.02449 3.29208,1.2862c0.55401,1.26396 -0.02199,2.73807 -1.28595,3.29183zM164.4733,128.23197c-0.38309,0.98832 -1.32768,1.59356 -2.32825,1.59356c-0.30262,0 -0.60749,-0.05498 -0.90761,-0.17218l-6.96475,-2.71233c-1.2887,-0.50028 -1.92317,-1.94866 -1.42289,-3.23486c0.49779,-1.28845 1.95241,-1.92667 3.23361,-1.42139l6.9695,2.71233c1.2862,0.50028 1.92067,1.94866 1.42039,3.23486zM113.48925,123.1584c1.2667,-0.55776 2.73807,0.02199 3.29208,1.28245l1.5081,3.43227c0.55651,1.26421 -0.01699,2.73807 -1.2812,3.29333c-0.32686,0.14394 -0.66846,0.21216 -1.00282,0.21216c-0.96159,0 -1.87919,-0.55876 -2.28901,-1.49461l-1.50835,-3.43252c-0.55626,-1.26396 0.01724,-2.73807 1.2812,-3.29308zM124.70767,127.89636c-0.97608,-0.97608 -0.97608,-2.55765 0,-3.53498c0.97608,-0.97608 2.5574,-0.97483 3.53373,-0.00125l23.99342,23.97418c0.97608,0.97608 0.97608,2.5574 0,3.53473c-0.48804,0.48804 -1.12726,0.73218 -1.76674,0.73218c-0.63947,0 -1.2787,-0.24414 -1.76674,-0.73094zM9.57649,128.78098l3.43377,-1.5046c1.2712,-0.55276 2.74032,0.02449 3.29183,1.2862c0.55401,1.26396 -0.02199,2.73807 -1.28595,3.29208l-3.43352,1.50435c-0.32711,0.14269 -0.66621,0.21116 -1.00057,0.21116c-0.96408,0 -1.88169,-0.56001 -2.29151,-1.49711c-0.55401,-1.26421 0.02199,-2.73807 1.28595,-3.29208zM172.33841,128.61505l6.96475,2.71233c1.2887,0.50028 1.92317,1.94866 1.42289,3.23486c-0.38309,0.98832 -1.32768,1.59356 -2.32825,1.59356c-0.30262,0 -0.60749,-0.05498 -0.90536,-0.17218l-6.9695,-2.71258c-1.2862,-0.50003 -1.92067,-1.94841 -1.42039,-3.23461c0.50028,-1.28845 1.94266,-1.92542 3.23586,-1.42139zM108.1498,134.74641v33.9039c0,1.37991 -1.11752,2.49892 -2.49892,2.49892c-1.38116,0 -2.49892,-1.11902 -2.49892,-2.49892v-33.9039c0,-1.38016 1.11777,-2.49892 2.49892,-2.49892c1.38141,0 2.49892,1.11877 2.49892,2.49892zM191.17805,141.13516c-0.30262,0 -0.60999,-0.05598 -0.90786,-0.17193l-3.492,-1.36041c-1.2862,-0.50028 -1.92067,-1.94991 -1.42039,-3.23486c0.50278,-1.28845 1.95466,-1.92042 3.23586,-1.42139l3.49225,1.36041c1.28595,0.50028 1.92042,1.94991 1.42014,3.23461c-0.38558,0.98832 -1.32743,1.59356 -2.328,1.59356zM117.72093,139.00233c-0.55401,-1.26396 0.01949,-2.73807 1.2837,-3.29333c1.26895,-0.55751 2.73807,0.02074 3.29433,1.28245l3.00421,6.83906c0.55401,1.26421 -0.01949,2.73807 -1.2837,3.29333c-0.32711,0.14394 -0.66871,0.21241 -1.00307,0.21241c-0.96134,0 -1.87894,-0.55901 -2.29151,-1.49486zM89.29567,140.37024c0.50278,-1.28745 1.95466,-1.91692 3.23586,-1.42039c1.2862,0.50153 1.92067,1.94991 1.42039,3.23586l-1.36166,3.49225c-0.38558,0.98708 -1.33018,1.59231 -2.32825,1.59231c-0.30262,0 -0.60999,-0.05623 -0.90786,-0.17218c-1.28595,-0.50128 -1.92042,-1.94966 -1.42014,-3.23586zM126.0156,151.66788c1.2667,-0.55901 2.74057,0.02074 3.29208,1.2822l3.00646,6.83931c0.55651,1.26271 -0.01699,2.73807 -1.28095,3.29308c-0.32711,0.14419 -0.66871,0.21241 -1.00307,0.21241c-0.96159,0 -1.87919,-0.55751 -2.28901,-1.49461l-3.00671,-6.83931c-0.55626,-1.26271 0.01724,-2.73807 1.2812,-3.29308zM81.48153,160.39587l2.76506,-7.08695c0.50278,-1.28595 1.95466,-1.91692 3.23586,-1.41914c1.2862,0.50153 1.92292,1.95116 1.42039,3.23611l-2.76506,7.08545c-0.38558,0.98832 -1.32993,1.59231 -2.328,1.59231c-0.30262,0 -0.61024,-0.05598 -0.90786,-0.17193c-1.2862,-0.50153 -1.92292,-1.95116 -1.42039,-3.23586zM164.20241,175.35518c-2.95773,0 -5.91295,-1.12377 -8.16299,-3.37255c-2.18181,-2.17931 -3.38229,-5.07731 -3.38229,-8.15949c0,-3.08217 1.20048,-5.98018 3.38229,-8.15924c4.50006,-4.49407 11.82116,-4.49881 16.32597,0c2.18156,2.17906 3.38229,5.07706 3.38229,8.15924c0,3.08217 -1.20073,5.98018 -3.38229,8.15949c-2.25253,2.24878 -5.20776,3.37255 -8.16299,3.37255zM164.20241,157.28671c-1.67653,0 -3.35306,0.63698 -4.62926,1.91193c-1.23747,1.23622 -1.91817,2.87851 -1.91817,4.62451c0,1.74625 0.68071,3.38854 1.91817,4.62326v0.00125c2.5524,2.55015 6.70611,2.5514 9.25851,-0.00125c1.23747,-1.23472 1.91817,-2.87701 1.91817,-4.62326c0,-1.746 -0.68071,-3.38829 -1.91817,-4.62326c-1.2762,-1.2762 -2.95273,-1.91318 -4.62926,-1.91318zM133.02934,167.62526c1.26645,-0.56001 2.73807,0.02074 3.29433,1.28245l3.00421,6.83906c0.55401,1.26421 -0.01949,2.73807 -1.2837,3.29333c-0.32686,0.14394 -0.66871,0.21241 -1.00307,0.21241c-0.96134,0 -1.87894,-0.55901 -2.29126,-1.49486l-3.00421,-6.83906c-0.55401,-1.26421 0.01949,-2.73807 1.2837,-3.29333zM75.03181,176.9305l2.76481,-7.08695c0.50278,-1.2872 1.95716,-1.92042 3.23611,-1.42039c1.28595,0.50153 1.92292,1.95116 1.42014,3.23611l-2.76481,7.0867c-0.38558,0.98832 -1.33018,1.59231 -2.32825,1.59231c-0.30262,0 -0.60999,-0.05598 -0.90761,-0.17193c-1.2862,-0.50153 -1.92317,-1.95116 -1.42039,-3.23586zM105.65087,199.59274c-6.36676,0 -11.54528,-5.17602 -11.54528,-11.53803c0,-6.36201 5.17852,-11.53803 11.54528,-11.53803c6.36701,0 11.54528,5.17602 11.54528,11.53803c0,6.36201 -5.17827,11.53803 -11.54528,11.53803zM112.1983,188.05471c0,-3.6067 -2.93799,-6.54018 -6.54743,-6.54018c-3.6092,0 -6.54743,2.93349 -6.54743,6.54018c0,3.60695 2.93823,6.54018 6.54743,6.54018c3.60945,0 6.54743,-2.93324 6.54743,-6.54018zM140.04032,183.58389c1.26895,-0.55751 2.73807,0.02099 3.29208,1.28245l1.5081,3.43127c0.55651,1.26296 -0.01699,2.73807 -1.2812,3.29333c-0.32686,0.14394 -0.66846,0.21216 -1.00282,0.21216c-0.96159,0 -1.87919,-0.55876 -2.28901,-1.49461l-1.50835,-3.43127c-0.55626,-1.26296 0.01724,-2.73807 1.2812,-3.29333zM69.98273,189.86793l1.36416,-3.49225c0.50253,-1.28595 1.94491,-1.91568 3.23836,-1.41889c1.28345,0.50253 1.92042,1.95216 1.41789,3.23711l-1.36416,3.492c-0.38558,0.98708 -1.33018,1.59106 -2.32825,1.59106c-0.30262,0 -0.60999,-0.05598 -0.91011,-0.17193c-1.2837,-0.50278 -1.92067,-1.95216 -1.41789,-3.23711z" fill-rule="evenodd"></path></svg>