<svg width="100%" viewBox="0 0 200 200" version="1.1" xmlns="http://www.w3.org/2000/svg" xmlns:xlink="http://www.w3.org/1999/xlink"><path d="M93.26316,18.94737h-6.52632c-1.47368,0 -2.31579,-1.68421 -1.47368,-2.94737l13.47368,-15.36842c0.84211,-0.84211 2.10526,-0.84211 2.73684,0l13.26316,15.36842c1.05263,1.26316 0.21053,2.94737 -1.26316,2.94737h-6.10526v19.15789c0,1.05263 -0.84211,1.68421 -1.68421,1.68421h-10.73684c-1.05263,0 -1.68421,-0.84211 -1.68421,-1.68421zM37.89474,47.57895l-4.63158,4.63158c-1.05263,1.05263 -2.94737,0.21053 -2.94737,-1.05263l-1.47368,-20.42105c0,-1.05263 0.84211,-1.89474 1.89474,-1.89474l20.42105,1.47368c1.47368,0 2.10526,1.89474 1.05263,2.94737l-4.42105,4.42105l13.47368,13.47368c0.63158,0.63158 0.63158,1.68421 0,2.31579l-7.57895,7.57895c-0.63158,0.63158 -1.68421,0.63158 -2.31579,0zM148.84211,61.26316c-0.63158,0.63158 -1.68421,0.63158 -2.31579,0l-7.57895,-7.57895c-0.63158,-0.63158 -0.63158,-1.68421 0,-2.31579l13.47368,-13.47368l-4.63158,-4.63158c-1.05263,-1.05263 -0.42105,-2.73684 1.05263,-2.94737l20.42105,-1.47368c1.05263,0 1.89474,0.84211 1.89474,1.89474l-1.47368,20.42105c0,1.47368 -1.89474,2.10526 -2.94737,1.05263l-4.42105,-4.42105zM51.57895,97.05263c1.05263,-1.05263 21.89474,-25.47368 48.42105,-25.47368c26.52632,0 47.36842,24.21053 48.42105,25.47368c1.47368,1.89474 1.47368,4.42105 0,6.31579c-1.05263,1.05263 -21.89474,25.47368 -48.42105,25.47368c-26.73684,0 -47.57895,-24.42105 -48.42105,-25.47368c-1.47368,-1.89474 -1.47368,-4.42105 0,-6.31579zM102.31579,90.10526c0,-3.36842 -2.73684,-6.10526 -6.10526,-6.10526c-3.36842,0 -6.10526,2.52632 -6.10526,6.10526c0,3.36842 2.73684,6.10526 6.10526,6.10526c3.36842,0 6.10526,-2.73684 6.10526,-6.10526zM184,85.26316l15.36842,13.47368c0.84211,0.63158 0.84211,1.89474 0,2.52632l-15.36842,13.26316c-1.26316,1.05263 -2.94737,0.21053 -2.94737,-1.26316v-6.10526h-19.15789c-1.05263,0 -1.68421,-0.84211 -1.68421,-1.68421v-10.73684c0,-1.05263 0.84211,-1.68421 1.68421,-1.68421h19.15789v-6.52632c0,-1.47368 1.89474,-2.31579 2.94737,-1.26316zM39.78947,105.26316c0,1.05263 -0.84211,1.68421 -1.68421,1.68421h-19.15789v6.52632c0,1.47368 -1.89474,2.31579 -2.94737,1.26316l-15.36842,-13.26316c-0.84211,-0.84211 -0.84211,-2.10526 0,-2.73684l15.36842,-13.26316c1.26316,-1.05263 2.94737,-0.21053 2.94737,1.26316v6.10526h19.15789c1.05263,0 1.68421,0.84211 1.68421,1.68421zM62.10526,100c6.10526,5.89474 21.05263,18.73684 37.89474,18.73684c16.84211,0 31.78947,-12.63158 37.89474,-18.73684c-4,-4 -11.36842,-10.52632 -20.63158,-14.73684c1.05263,2.31579 1.47368,4.84211 1.47368,7.36842c0,10.31579 -8.42105,18.73684 -18.73684,18.73684c-10.31579,0 -18.73684,-8.42105 -18.73684,-18.73684c0,-2.73684 0.63158,-5.05263 1.47368,-7.36842c-9.26316,4.42105 -16.63158,10.94737 -20.63158,14.73684zM51.15789,138.73684c0.63158,-0.63158 1.68421,-0.63158 2.31579,0l7.57895,7.57895c0.63158,0.63158 0.63158,1.68421 0,2.31579l-13.47368,13.47368l4.63158,4.63158c1.05263,1.05263 0.42105,2.73684 -1.05263,2.94737l-20.42105,1.47368c-1.05263,0 -1.89474,-0.84211 -1.89474,-1.89474l1.47368,-20.42105c0,-1.47368 1.89474,-2.10526 2.94737,-1.05263l4.42105,4.42105zM162.10526,152.42105l4.63158,-4.63158c1.05263,-1.05263 2.94737,-0.21053 2.94737,1.05263l1.47368,20.42105c0,1.05263 -0.84211,1.89474 -1.89474,1.89474l-20.42105,-1.47368c-1.47368,0 -2.10526,-1.89474 -1.05263,-2.94737l4.42105,-4.42105l-13.47368,-13.47368c-0.63158,-0.63158 -0.63158,-1.68421 0,-2.31579l7.57895,-7.57895c0.63158,-0.63158 1.68421,-0.63158 2.31579,0zM106.73684,181.05263h6.52632c1.47368,0 2.31579,1.68421 1.26316,2.94737l-13.26316,15.36842c-0.84211,0.84211 -2.10526,0.84211 -2.73684,0l-13.26316,-15.36842c-1.05263,-1.26316 -0.21053,-2.94737 1.26316,-2.94737h6.10526v-19.15789c0,-1.05263 0.84211,-1.68421 1.68421,-1.68421h10.73684c1.05263,0 1.68421,0.84211 1.68421,1.68421z" fill-rule="evenodd"></path></svg>