<svg width="100%" viewBox="0 0 200 200" version="1.1" xmlns="http://www.w3.org/2000/svg" xmlns:xlink="http://www.w3.org/1999/xlink"><path d="M2.49626,199.95002h194.90254c1.37931,0 2.49875,-1.11694 2.49875,-2.49875v-12.58371c0,-1.38181 -1.11944,-2.49875 -2.49875,-2.49875h-24.43028l0.09245,-30.13493c15.05747,-1.1994 26.93903,-13.36582 26.93903,-28.18091c0,-6.08446 -2.04898,-12.01649 -5.7996,-16.87906c1.17441,-2.86107 1.76912,-5.85457 1.76912,-8.92054c0,-5.27736 -1.78911,-10.41729 -5.06497,-14.63268c0.91454,-2.34383 1.37681,-4.7901 1.37681,-7.29385c0,-11.51424 -9.71264,-20.88456 -21.65167,-20.88456c-5.25237,0 -10.06747,1.81409 -13.82559,4.82259v-27.70365h4.37281c1.37931,0 2.49875,-1.11694 2.49875,-2.49875v-12.52124c0,-1.38181 -1.11944,-2.49875 -2.49875,-2.49875h-36.46926v-12.49375c0,-1.38181 -1.11944,-2.49875 -2.49875,-2.49875h-16.49175c-1.37931,0 -2.49875,1.11694 -2.49875,2.49875v12.49375h-5.53473v-12.49375c0,-1.38181 -1.11944,-2.49875 -2.49875,-2.49875h-16.49175c-1.37931,0 -2.49875,1.11694 -2.49875,2.49875v12.49375h-36.47426c-1.37931,0 -2.49875,1.11694 -2.49875,2.49875v12.52124c0,1.38181 1.11944,2.49875 2.49875,2.49875h3.47576v27.70365c-3.75812,-3.0085 -8.57321,-4.82259 -13.82559,-4.82259c-11.93903,0 -21.65167,9.37031 -21.65167,20.88456c0,2.50375 0.46227,4.94753 1.37681,7.29385c-3.27836,4.21789 -5.06497,9.35532 -5.06497,14.63268c0,3.06847 0.5947,6.06197 1.76912,8.92054c-3.75062,4.86257 -5.7996,10.7946 -5.7996,16.87906c0,14.81259 11.87906,26.98151 26.93903,28.18091l0.09245,30.13493h-24.53273c-1.37931,0 -2.49875,1.11694 -2.49875,2.49875v12.58371c-0.0025,1.38181 1.11694,2.49875 2.49625,2.49875zM81.19191,5.04748h11.49425v9.995h-11.49425zM108.21589,5.04748h11.49425v9.995h-11.49425zM42.21889,20.03998h116.45927v7.52374h-116.45927zM151.8066,32.56122v33.31584c0,0.03248 0.01749,0.05997 0.01999,0.09245c-1.63418,2.76112 -2.64618,5.91704 -2.82109,9.30285c-0.01749,0.35232 -0.02749,0.69965 -0.02749,1.05447c0,2.50625 0.46227,4.95002 1.37681,7.29635c-3.27836,4.21539 -5.06747,9.35032 -5.06747,14.63018c0,3.06847 0.5947,6.06197 1.76912,8.92054c-0.28486,0.36482 -0.55972,0.73963 -0.82459,1.11944c-3.25587,4.67016 -4.97751,10.11994 -4.97751,15.75962c0,8.70815 4.10795,16.50175 10.54972,21.69665v23.5907h-21.24937v-43.81809c0,-1.38181 -1.11944,-2.49875 -2.49875,-2.49875h-55.21489c-1.37931,0 -2.49875,1.11694 -2.49875,2.49875v43.81809h-22.14893v-23.58821c6.44178,-5.1949 10.54972,-12.991 10.54972,-21.69665c0,-5.63968 -1.72164,-11.08946 -4.97751,-15.75962c-0.26487,-0.37981 -0.53973,-0.75462 -0.82459,-1.11944c1.17441,-2.86107 1.76912,-5.85457 1.76912,-8.92054c0,-5.27986 -1.78911,-10.41729 -5.06747,-14.63018c0.91454,-2.34383 1.37681,-4.7901 1.37681,-7.29635c0,-0.35482 -0.0075,-0.70215 -0.02749,-1.05447c-0.17491,-3.37081 -1.17941,-6.51424 -2.8011,-9.26787v-33.44578zM97.68866,81.02949v20.37731c-4.24038,-1.29685 -7.35132,-5.18491 -7.35132,-9.82759c0,-1.38181 -1.11944,-2.49875 -2.49875,-2.49875c-1.37931,0 -2.49875,1.11694 -2.49875,2.49875c0,7.41879 5.31734,13.62069 12.34883,15.02249v3.38331c0,1.38181 1.11944,2.49875 2.49875,2.49875c1.37931,0 2.49875,-1.11694 2.49875,-2.49875v-3.22339c7.54373,-0.97201 13.3958,-7.4013 13.3958,-15.18241c0,-7.78111 -5.85207,-14.21289 -13.3958,-15.18491v-20.46227c4.51024,1.12194 7.87606,5.15742 7.87606,9.9925c0,1.38181 1.11944,2.49875 2.49875,2.49875c1.37931,0 2.49875,-1.11694 2.49875,-2.49875c0,-7.6012 -5.58471,-13.91054 -12.87356,-15.10495v-3.30085c0,-1.38181 -1.11944,-2.49875 -2.49875,-2.49875c-1.37931,0 -2.49875,1.11694 -2.49875,2.49875v3.30085c-7.28886,1.1969 -12.87356,7.50625 -12.87356,15.10495c0,7.5987 5.58471,13.90805 12.87356,15.10495zM97.68866,75.91704c-4.51024,-1.12194 -7.87606,-5.15742 -7.87606,-9.9925c0,-4.83508 3.36582,-8.87306 7.87606,-9.9925zM170.62969,60.43728c9.18291,0 16.65417,7.12894 16.65417,15.88706c0,2.28386 -0.51724,4.51274 -1.53423,6.62169c-0.43728,0.90705 -0.28736,1.9915 0.38231,2.74613c3.12094,3.51324 4.84008,7.97351 4.84008,12.55872c0,2.83608 -0.64718,5.5972 -1.92654,8.2084c-0.44228,0.89955 -0.30235,1.97651 0.35732,2.73613c3.61319,4.16792 5.6022,9.44278 5.6022,14.85507c0,12.05647 -9.63018,22.004 -21.92654,23.18341l0.03748,-12.53123l8.29585,-8.58821c0.95952,-0.98951 0.93203,-2.57371 -0.05997,-3.53323c-0.992,-0.95952 -2.57371,-0.92704 -3.53323,0.06247l-4.67766,4.84258l0.02999,-9.75512c0.0025,-1.37931 -1.11194,-2.50125 -2.49125,-2.50625h-0.0075c-1.37681,0 -2.49625,1.11194 -2.49875,2.49125l-0.02999,10.12993l-5.02749,-5.2049c-0.95952,-0.98951 -2.53873,-1.01699 -3.53323,-0.06247c-0.992,0.95952 -1.01949,2.54373 -0.05997,3.53323l8.6007,8.90305l-0.03748,12.2039c-12.24638,-1.22189 -21.82659,-11.14693 -21.82659,-23.17091c0,-4.61269 1.4093,-9.07296 4.07796,-12.89855c0.47226,-0.67716 0.98451,-1.32934 1.52674,-1.95902c0.65717,-0.75712 0.7971,-1.83408 0.35482,-2.73613c-1.27936,-2.6087 -1.92654,-5.36981 -1.92654,-8.2059c0,-4.58771 1.71914,-9.04548 4.84258,-12.55872c0.66967,-0.75462 0.82209,-1.83658 0.38231,-2.74613c-1.01699,-2.10895 -1.53423,-4.33533 -1.53423,-6.62169c0,-0.26487 0.005,-0.53223 0.01999,-0.7946c0.42979,-8.45827 7.73613,-15.08995 16.62669,-15.08995zM4.99501,124.05297c0,-5.41229 1.98901,-10.68716 5.6022,-14.85507c0.65717,-0.75962 0.7971,-1.83408 0.35732,-2.73613c-1.27936,-2.61119 -1.92654,-5.37231 -1.92654,-8.2084c0,-4.58521 1.71914,-9.04548 4.84008,-12.55872c0.66967,-0.75462 0.82209,-1.83658 0.38231,-2.74613c-1.01949,-2.11144 -1.53423,-4.33783 -1.53423,-6.62169c0,-8.76062 7.47126,-15.88706 16.65417,-15.88706c8.89055,0 16.1969,6.62919 16.63418,15.09245c0.01249,0.26237 0.01999,0.52974 0.01999,0.7946c0,2.28636 -0.51724,4.51524 -1.53423,6.62169c-0.43978,0.90705 -0.28736,1.9915 0.38231,2.74613c3.12344,3.51324 4.84258,7.97101 4.84258,12.55872c0,2.83608 -0.64968,5.5972 -1.92654,8.2059c-0.44228,0.89955 -0.30235,1.97901 0.35482,2.73613c0.54223,0.62969 1.05447,1.28436 1.52674,1.95902c2.66867,3.82559 4.07796,8.28586 4.07796,12.89855c0,12.02399 -9.58021,21.94903 -21.82659,23.17091l-0.03748,-12.2039l8.6007,-8.90305c0.95952,-0.98951 0.93203,-2.57371 -0.05997,-3.53323c-0.992,-0.95952 -2.57371,-0.92704 -3.53323,0.06247l-5.02749,5.2049l-0.02999,-10.12993c-0.0025,-1.37931 -1.12194,-2.49125 -2.49875,-2.49125h-0.0075c-1.37931,0.005 -2.49625,1.12694 -2.49125,2.50625l0.02999,9.75512l-4.67766,-4.84258c-0.95702,-0.98951 -2.53873,-1.01699 -3.53323,-0.06247c-0.992,0.95952 -1.01949,2.54373 -0.05997,3.53323l8.29585,8.58821l0.03748,12.53123c-12.30135,-1.18191 -21.93403,-11.12694 -21.93403,-23.18591zM111.08696,91.57921c0,5.02249 -3.62069,9.2054 -8.3983,10.12744v-20.25737c4.77511,0.92204 8.3983,5.10745 8.3983,10.12993zM125.55972,169.34033h-50.21989v-41.31934h50.21989zM31.93404,152.22639c4.04048,-0.33983 7.85107,-1.45927 11.26187,-3.21839v20.33233h-2.89855c-1.37931,0 -2.49875,1.11694 -2.49875,2.49875v10.52973h-5.77211zM163.54823,182.36881v-10.52973c0,-1.38181 -1.11944,-2.49875 -2.49875,-2.49875h-4.24538v-20.33233c3.41079,1.76162 7.21889,2.88106 11.26187,3.21839l-0.09245,30.14243zM158.55073,174.33783v8.03098h-115.75462v-8.03098zM4.99501,187.36632h189.90504v7.58621h-189.90504z" fill-rule="evenodd"></path></svg>