<svg width="100%" viewBox="0 0 200 200" version="1.1" xmlns="http://www.w3.org/2000/svg" xmlns:xlink="http://www.w3.org/1999/xlink"><path d="M99.99991,21.65671c2.46316,0 4.45983,-1.99671 4.45983,-4.45983v-12.73705c0,-2.46307 -1.99667,-4.45983 -4.45983,-4.45983c-2.46316,0 -4.45983,1.99676 -4.45983,4.45983v12.73705c0,2.46312 1.99667,4.45983 4.45983,4.45983zM38.29593,44.60258c1.74156,1.74156 4.56508,1.74156 6.30665,0c1.74156,-1.74156 1.74156,-4.56508 0,-6.30665l-9.00672,-9.00663c-1.74152,-1.74152 -4.56504,-1.74152 -6.30656,0c-1.74152,1.74152 -1.74152,4.56504 0,6.30656zM158.55034,45.90931c1.18319,0.00134 2.31777,-0.46917 3.1531,-1.30673l9.00707,-9.00672c1.74156,-1.74152 1.74156,-4.56504 0,-6.30656c-1.74156,-1.74152 -4.56508,-1.74152 -6.30665,0l-9.00663,9.00663c-1.27507,1.27551 -1.65638,3.19368 -0.96645,4.85988c0.69038,1.66619 2.31599,2.75261 4.11954,2.7535zM48.42867,106.20621l48.36998,48.36998c0.83533,0.838 1.97035,1.30807 3.1531,1.30673l0.04817,-0.00937l0.04772,0.00937c1.18319,0.00134 2.31822,-0.46917 3.1531,-1.30673l48.37042,-48.36998c14.49177,-14.49266 15.05995,-37.80732 1.29157,-52.98902c-13.76839,-15.18126 -37.02774,-16.88634 -52.86281,-3.8747c-15.83507,-13.01164 -39.09442,-11.30656 -52.86281,3.8747c-13.76843,15.18171 -13.20012,38.49636 1.29157,52.98902zM54.73531,58.16715c11.53312,-11.50458 30.20152,-11.50458 41.73464,0l0.37686,0.37686c0.83622,0.83666 1.97035,1.30673 3.1531,1.30673c1.18275,0 2.31688,-0.47007 3.1531,-1.30673l0.37686,-0.37686c11.52643,-11.51082 30.20018,-11.50502 41.71903,0.01338c11.51885,11.51885 11.52598,30.19216 0.01561,41.71903l-45.2646,45.26504l-45.2646,-45.26504c-11.50458,-11.53223 -11.50458,-30.20018 0,-41.73241zM21.65671,99.99991c0,-2.46316 -1.99671,-4.45983 -4.45983,-4.45983h-12.73705c-2.46307,0 -4.45983,1.99667 -4.45983,4.45983c0,2.46316 1.99676,4.45983 4.45983,4.45983h12.73705c2.46312,0 4.45983,-1.99667 4.45983,-4.45983zM195.54017,95.54008h-12.73727c-2.46316,0 -4.45983,1.99667 -4.45983,4.45983c0,2.46316 1.99667,4.45983 4.45983,4.45983h12.73727c2.46316,0 4.45983,-1.99667 4.45983,-4.45983c0,-2.46316 -1.99667,-4.45983 -4.45983,-4.45983zM32.44263,172.01724c1.18306,0.00134 2.31782,-0.46873 3.1531,-1.30673l9.00685,-9.00663c1.12655,-1.12655 1.56629,-2.76866 1.1542,-4.30775c-0.41253,-1.53864 -1.61446,-2.74057 -3.15355,-3.1531c-1.53864,-0.41209 -3.18075,0.02765 -4.3073,1.1542l-9.00663,9.00663c-1.27511,1.27551 -1.65647,3.19368 -0.96636,4.85988c0.69016,1.66619 2.3159,2.75261 4.11946,2.75305zM155.39724,155.39724c-1.74156,1.74156 -1.74156,4.56508 0,6.30665l9.00663,9.00663c1.74156,1.74156 4.56508,1.74156 6.30665,0c1.74156,-1.74156 1.74156,-4.56508 0,-6.30665l-9.00663,-9.00663c-1.74156,-1.74156 -4.56508,-1.74156 -6.30665,0zM104.45974,182.8029c0,-2.46316 -1.99667,-4.45983 -4.45983,-4.45983c-2.46316,0 -4.45983,1.99667 -4.45983,4.45983v12.73727c0,2.46316 1.99667,4.45983 4.45983,4.45983c2.46316,0 4.45983,-1.99667 4.45983,-4.45983z" fill-rule="evenodd"></path></svg>