<svg width="100%" viewBox="0 0 200 200" version="1.1" xmlns="http://www.w3.org/2000/svg" xmlns:xlink="http://www.w3.org/1999/xlink"><path d="M200,68.91566v1.05438c-0.0125,0.07487 -0.02813,0.14958 -0.04689,0.22413l-21.70965,84.71297c-0.35479,1.37698 -1.59423,2.33977 -3.01653,2.34445l-71.64654,0.10941l-78.74242,-0.10941c-1.42168,-0.00469 -2.66111,-0.96748 -3.01653,-2.34445l-21.72528,-84.75985c-0.32247,-1.27116 0.18286,-2.6086 1.2654,-3.34882c1.08254,-0.74038 2.51211,-0.72631 3.57981,0.03532l51.578,36.91735l40.98107,-54.70394c0.61456,-0.74866 1.53218,-1.18254 2.50075,-1.18254c0.96857,0 1.88619,0.43388 2.50075,1.18254l40.98107,54.70394l51.578,-36.91735c1.07532,-0.75069 2.50388,-0.75069 3.5792,0c0.73772,0.4864 1.21599,1.24741 1.35978,2.08188zM99.96993,42.85782c7.50132,0 13.58221,-6.08089 13.58221,-13.58221c0,-7.50132 -6.08089,-13.58221 -13.58221,-13.58221c-7.50132,0 -13.58221,6.08089 -13.58221,13.58221c0.0086,7.49772 6.08449,13.57361 13.58221,13.58221zM99.96993,21.96092c4.0484,0 7.33033,3.28192 7.33033,7.33033c0,4.0484 -3.28192,7.33033 -7.33033,7.33033c-4.0484,0 -7.33033,-3.28192 -7.33033,-7.33033c-0.00422,-1.94684 0.76632,-3.81537 2.14142,-5.19344c1.37526,-1.37807 3.24207,-2.15252 5.1889,-2.15252zM131.52629,78.89991c1.34275,1.08173 3.30787,0.87198 4.39195,-0.46889l14.33243,-17.70845l8.22122,21.41269c0.35792,1.09846 1.29101,1.91011 2.42886,2.11079c1.13784,0.20069 2.29288,-0.24226 3.00559,-1.15207c0.71115,-0.90965 0.86432,-2.13783 0.39543,-3.19377l-10.1593,-26.46108c-0.40121,-1.04125 -1.32712,-1.78944 -2.42932,-1.96356c-1.10205,-0.17396 -2.21348,0.25273 -2.91603,1.11956l-17.73971,21.88158c-0.52938,0.64676 -0.77773,1.47841 -0.68958,2.3096c0.088,0.83103 0.50531,1.5922 1.15847,2.1136zM37.62306,83.93267c1.60986,0.61472 3.41353,-0.18928 4.03246,-1.79742l8.29937,-21.41269l14.26991,17.70845c1.08767,1.34228 3.05748,1.54875 4.39976,0.46108c1.34228,-1.08767 1.54875,-3.05748 0.46108,-4.39976l-17.73971,-21.88158c-0.70255,-0.86682 -1.81398,-1.29351 -2.91603,-1.11956c-1.10221,0.17411 -2.02811,0.92246 -2.42932,1.96356l-10.11241,26.44545c-0.62159,1.59235 0.1513,3.38883 1.7349,4.03246zM172.74181,150.99971l-69.22393,0.10941l-76.31982,-0.10941l-18.97445,-74.05351l47.12354,33.71326c1.38213,0.98358 3.29646,0.68536 4.3138,-0.67208l40.30899,-53.84431l40.30899,53.84431c1.01734,1.35744 2.93166,1.65565 4.3138,0.67208l47.12354,-33.71326zM175.58641,164.17554h-151.21733c-1.72646,0 -3.12594,1.39886 -3.12594,3.12594c0,1.72708 1.39948,3.12594 3.12594,3.12594h151.21733c1.72708,0 3.12594,-1.39886 3.12594,-3.12594c0,-1.72708 -1.39886,-3.12594 -3.12594,-3.12594zM175.58641,178.05471h-151.21733c-1.72646,0 -3.12594,1.39886 -3.12594,3.12594c0,1.72708 1.39948,3.12594 3.12594,3.12594h151.21733c1.72708,0 3.12594,-1.39886 3.12594,-3.12594c0,-1.72708 -1.39886,-3.12594 -3.12594,-3.12594z" fill-rule="evenodd"></path></svg>