<svg width="100%" viewBox="0 0 200 200" version="1.1" xmlns="http://www.w3.org/2000/svg" xmlns:xlink="http://www.w3.org/1999/xlink"><path d="M110.35831,0.13029c35.00543,4.86428 60.02172,19.28339 75.04886,43.25733c9.72856,15.8089 14.59283,34.39739 14.59283,55.76547c0,11.90011 -1.04235,23.19218 -3.12704,33.87622c-3.47448,18.24104 -9.72856,33.52877 -18.76221,45.86319c-2.77959,3.99566 -8.77307,8.07818 -17.98046,12.24756c-13.11618,5.81976 -27.75244,8.72964 -43.90879,8.72964c-46.9924,0 -80.13029,-13.9848 -99.41368,-41.9544c-11.20521,-16.5038 -16.80782,-35.70033 -16.80782,-57.58958c0,-20.32573 5.77633,-39.4354 17.32899,-57.32899c15.63518,-24.14767 39.04452,-38.34962 70.22801,-42.60586v-0.26059zM177.32899,49.38111c-13.2899,-21.36808 -35.13572,-34.04995 -65.53746,-38.0456h-25.66775c-27.36156,4.42997 -47.86102,17.45928 -61.49837,39.08795c-10.076,15.89577 -15.11401,32.66015 -15.11401,50.29316c0,21.19435 4.29967,37.82845 12.89902,49.90228c12.50814,17.71987 35.48317,29.924 68.92508,36.61238h29.18567c27.44843,1.8241 47.03583,-9.20738 58.76221,-33.09446c7.47014,-15.11401 11.20521,-33.31162 11.20521,-54.59283c0,-19.19653 -4.38654,-35.91748 -13.15961,-50.16287zM125.08143,50.42345c0,7.20955 -2.86645,10.81433 -8.59935,10.81433c-3.12704,0 -5.29859,-1.43322 -6.51466,-4.29967c-0.60803,-2.95331 -0.91205,-4.51683 -0.91205,-4.69055c0,-3.90879 2.69273,-6.64495 8.07818,-8.20847c2.54176,-0.74997 4.47392,-0.65042 5.79648,0.29863c1.43427,1.02932 2.1514,3.05789 2.1514,6.08573zM76.74267,57.32899c-0.43431,-1.04235 -0.65147,-2.519 -0.65147,-4.42997c0,-4.95114 2.43214,-7.557 7.29642,-7.81759c1.91792,-0.10458 3.45077,0.28777 4.59857,1.17707c1.7117,1.32586 2.56756,3.75653 2.56756,7.29199c0,5.12486 -2.43214,7.6873 -7.29642,7.6873c-3.30076,0 -5.47231,-1.30293 -6.51466,-3.90879zM151.41212,56.84456c0.75553,-0.62975 2.31522,-0.29455 4.67909,1.0056c3.38762,1.91097 5.08143,4.12595 5.08143,6.64495c0,1.21607 -0.52117,1.8241 -1.56352,1.8241c-2.60586,0.43431 -7.6873,3.17047 -15.2443,8.20847c-7.64387,4.95114 -12.85559,7.90445 -15.63518,8.85993c0.86862,1.56352 1.60695,3.90879 2.21498,7.03583c0.60803,3.2139 0.95548,6.4278 1.04235,9.64169c0,5.7329 -1.52009,11.11835 -4.56026,16.15635c-4.95114,8.42562 -13.02932,12.63844 -24.23453,12.63844c-11.4658,0 -20.15201,-4.56026 -26.05863,-13.68078c-3.82193,-5.90662 -5.7329,-11.29207 -5.7329,-16.15635c0,-5.7329 1.04235,-10.72747 3.12704,-14.98371c-3.64821,-1.30293 -7.60043,-2.82302 -11.85668,-4.56026c-13.02932,-5.47231 -21.88925,-10.2063 -26.5798,-14.20195c-0.08686,0.43431 -0.21716,0.95548 -0.39088,1.56352c-0.43431,1.30293 -0.95548,1.9544 -1.56352,1.9544c-0.6949,0 -1.17264,-0.43431 -1.43322,-1.30293c-0.17372,-0.52117 -0.26059,-1.04235 -0.26059,-1.56352c0,-1.91097 1.30293,-3.90879 3.90879,-5.99349c1.82532,-1.39935 3.01134,-1.90376 3.55805,-1.51322c0.23383,0.16695 0.35075,0.49763 0.35075,0.99205c0,0.52117 -0.5646,1.30293 -1.69381,2.34528c-0.43431,0.34745 -0.78176,0.6949 -1.04235,1.04235c4.77742,1.73724 13.94137,5.38545 27.49186,10.94463c15.37459,5.12486 31.31379,7.6873 47.81759,7.6873c2.77959,0 7.16612,-1.17264 13.15961,-3.51792c5.21173,-2.08469 9.55483,-4.16938 13.02932,-6.25407c1.04235,-0.52117 3.99566,-2.30185 8.85993,-5.34202c3.26219,-1.91236 4.83092,-3.6972 4.70619,-5.35453c-0.06793,-0.90215 -0.63774,-1.7666 -1.70945,-2.59336c0,-0.722 0.17755,-1.23092 0.53264,-1.52678zM124.95114,90.03257l-2.47557,-4.82085c-6.4278,1.65038 -12.98588,2.73616 -19.67427,3.25733c-0.17372,1.12921 -0.39088,2.47557 -0.65147,4.03909c-0.60803,3.30076 -1.21607,5.25516 -1.8241,5.86319c-1.65038,-1.38979 -2.519,-4.64712 -2.60586,-9.77199h-1.69381c-4.08252,0 -9.25081,-0.91205 -15.50489,-2.73616c-0.26059,1.04235 -0.60803,2.64929 -1.04235,4.82085c-0.86862,4.42997 -1.30293,7.16612 -1.30293,8.20847c0,3.73507 1.52009,7.77416 4.56026,12.11726c4.60369,6.77524 11.4658,10.16287 20.58632,10.16287c8.59935,0 15.20087,-3.43105 19.80456,-10.29316c3.04017,-4.51683 4.56026,-8.72964 4.56026,-12.63844c0,-1.91097 -0.91205,-4.64712 -2.73616,-8.20847z" fill-rule="evenodd"></path></svg>