<svg width="100%" viewBox="0 0 200 200" version="1.1" xmlns="http://www.w3.org/2000/svg" xmlns:xlink="http://www.w3.org/1999/xlink"><path d="M148.64567,87.15278c9.72222,4.86111 21.875,11.80556 24.65278,23.61111c2.77778,10.76389 4.51389,55.20833 -3.125,66.66667c-6.25,7.98611 -26.38889,8.33333 -54.16667,8.33333h-5.20833c-5.55556,0 -11.80556,0.69444 -18.40278,1.38889c-3.125,3.47222 -7.29167,6.25 -13.19444,6.25c-2.77778,0 -5.55556,-1.38889 -8.33333,-3.125c-5.90278,0.69444 -9.02778,1.04167 -11.11111,1.04167c-0.34722,0 -1.38889,1.38889 -2.08333,2.08333c-1.73611,2.08333 -4.16667,5.20833 -8.68056,6.25c-1.04167,0.34722 -1.73611,0.34722 -2.77778,0.34722c-4.86111,0 -10.06944,-2.43056 -13.88889,-5.20833c-4.86111,-3.81944 -7.63889,-8.68056 -7.98611,-13.54167c0,-4.51389 1.38889,-8.33333 4.86111,-11.45833c5.90278,-5.55556 15.97222,-6.59722 21.18056,-5.90278h1.38889c-0.69444,-1.04167 -1.04167,-2.08333 -1.38889,-2.77778c0,-0.07049 -0.14653,-0.50937 -0.39861,-1.26319c-2.22986,-6.67396 -12.70972,-38.03924 -2.72639,-57.07014c5.90278,-11.80556 26.73611,-23.61111 39.93056,-25.34722c0.34722,-2.08333 1.38889,-4.16667 3.125,-5.55556v-1.38889c0,-1.04167 0,-1.73611 -0.34722,-2.77778c-0.34722,-2.08333 -1.38889,-4.51389 -2.08333,-7.29167c-2.77778,-7.98611 -5.90278,-17.70833 -5.90278,-28.47222c0,-19.44444 12.15278,-31.94444 30.90278,-31.94444c18.75,0 30.90278,12.5 30.90278,31.94444c0,10.76389 -3.81944,20.83333 -6.94444,28.47222c1.73611,0 3.47222,0.69444 5.20833,1.73611c3.47222,2.43056 5.55556,5.90278 5.55556,10.06944c0,3.125 -1.04167,5.55556 -2.43056,7.29167c1.73611,2.08333 3.125,4.51389 3.47222,7.63889zM133.02067,31.59722c0,-13.88889 -7.29167,-21.52778 -20.48611,-21.52778c-13.19444,0 -20.83333,7.98611 -20.83333,21.875c0,9.375 2.77778,18.05556 5.20833,25.34722c1.04167,2.43056 1.73611,5.20833 2.43056,7.63889c0.34722,1.04167 0.69444,2.08333 0.69444,3.125c3.47222,0 6.94444,1.38889 11.45833,4.16667c3.125,-2.77778 7.63889,-5.90278 12.15278,-8.33333c0.69444,-1.38889 1.38889,-3.125 2.08333,-4.86111c3.125,-6.94444 7.29167,-17.36111 7.29167,-27.43056zM72.60401,178.125c1.73611,1.73611 3.81944,3.47222 6.25,3.47222c1.38889,0 3.81944,-2.08333 6.59722,-5.55556c11.11111,-13.54167 29.51389,-49.30556 33.33333,-56.25c0,0 6.25,-14.23611 7.29167,-16.31944c1.04167,-2.08333 7.63889,-5.20833 10.76389,-7.63889l1.04167,-1.04167c1.73611,-2.08333 1.04167,-4.51389 1.04167,-4.51389v-1.04167c-0.34722,-2.77778 -3.125,-5.90278 -4.51389,-6.94444c-1.38889,-1.38889 -4.86111,-1.38889 -4.86111,-1.38889c0,0 0.34722,-0.34722 1.04167,-0.69444c1.04167,-1.04167 2.77778,-2.08333 3.81944,-2.77778c1.73611,-1.04167 5.20833,-3.125 2.43056,-5.20833c0,-0.34722 -0.34722,-0.34722 -0.69444,-0.34722h-1.04167c-0.34722,0 -0.69444,0.34722 -1.04167,0.34722h-0.34722c-2.08333,0.69444 -4.86111,2.43056 -7.63889,4.16667c-3.47222,2.43056 -6.94444,4.86111 -9.02778,6.59722c0,0.34722 -0.34722,0.34722 -0.69444,0.69444c-0.34722,0.34722 -0.69444,0.34722 -0.69444,0.69444c-0.69444,0.69444 -1.38889,1.04167 -2.08333,1.04167c-1.38889,0 -3.125,-1.38889 -4.86111,-2.43056c-1.73611,-1.38889 -5.55556,-3.47222 -7.98611,-3.81944h-1.38889c-0.69444,0.34722 -1.38889,0.69444 -1.38889,1.04167c-0.69444,1.04167 -0.34722,2.43056 0.34722,3.125c0.34722,0.69444 1.04167,1.04167 1.04167,1.04167c2.77778,1.04167 5.90278,3.47222 8.33333,5.90278c2.43056,2.77778 3.81944,6.94444 3.125,8.68056c-1.04167,2.77778 -4.86111,10.41667 -5.20833,10.76389c-3.81944,6.94444 -9.02778,15.97222 -13.54167,23.95833l-5.90278,10.06944l-1.38889,2.43056c0,0.34722 -0.34722,0.69444 -0.34722,0.69444l-0.34722,0.34722c0,0.34722 -0.34722,0.34722 -0.69444,0.69444c-0.34722,0.34722 -0.69444,0.34722 -0.69444,0.34722h-1.38889c0,-0.34722 -0.34722,-0.34722 -0.34722,-0.34722c-1.04167,-0.69444 -1.73611,-1.73611 -2.08333,-2.77778c0,-0.34722 -0.34722,-0.34722 -0.34722,-0.69444c-3.125,-8.33333 -7.98611,-22.22222 -5.90278,-26.04167c2.77778,-5.90278 7.63889,0 7.63889,0l1.73611,6.25l1.04167,3.81944l3.125,-5.90278l1.04167,-1.73611c3.125,-5.55556 6.25,-11.11111 8.68056,-15.97222c0,-0.34722 0.34722,-0.69444 0.69444,-1.04167c0.69444,-1.04167 2.08333,-3.81944 3.47222,-5.90278c-0.34722,0 -0.34722,-0.34722 -0.34722,-0.34722c-1.04167,-1.04167 -9.375,-8.33333 -10.41667,-9.72222c-9.72222,1.04167 -28.81944,11.45833 -32.98611,19.79167c-6.59722,12.5 -1.04167,35.76389 2.43056,45.83333c0.69444,1.38889 1.04167,2.77778 1.38889,3.47222c0,0.09063 0.0059,0.17535 0.01701,0.2559c0.1059,0.25694 0.21597,0.5191 0.33021,0.78576c-0.08646,-0.17292 -0.17292,-0.32396 -0.25382,-0.46458c0.12639,0.37188 0.36354,0.68438 0.60104,1.15903c0.98194,2.29132 1.96389,5.19965 2.94618,6.97986c0.17882,0.08854 0.17882,0.31181 0.17882,0.31181l0.34722,0.34722l0.34722,0.34722c0,0.34722 0.34722,0.69444 0.34722,0.69444c0.69444,0.69444 1.04167,1.38889 1.38889,2.08333c1.04167,1.04167 3.125,5.55556 6.25,8.68056zM115.65956,173.61111c11.45833,0.34722 42.36111,0.34722 46.18056,-4.16667c3.81944,-4.51389 4.51389,-43.40278 1.04167,-56.94444c-1.73611,-6.59722 -9.375,-11.45833 -16.66667,-15.27778c-1.04167,1.73611 -2.77778,3.47222 -4.51389,4.86111c-1.73611,1.38889 -3.47222,2.43056 -5.20833,3.47222l-3.125,2.08333c-1.73611,3.81944 -5.20833,11.80556 -6.25,13.88889c-3.47222,10.41667 -8.33333,20.48611 -17.36111,35.76389c13.88889,-1.73611 24.65278,-3.47222 24.65278,-3.47222c1.73611,-0.34722 3.47222,1.04167 3.81944,2.77778c0.34722,1.73611 -1.04167,3.47222 -2.77778,3.81944c0,0 -13.88889,1.73611 -30.20833,4.16667c-1.73611,2.77778 -3.47222,5.55556 -5.20833,8.68056c0,0.31771 0,0.63507 -0.26562,0.68715c3.78715,-0.33993 7.23229,-0.33993 10.33507,-0.33993zM49.34012,185.76389c1.73611,-2.43056 4.86111,-6.25 10.41667,-5.90278h0.69444c-1.73611,-2.08333 -3.47222,-4.51389 -4.51389,-6.59722c-5.20833,0.69444 -6.59722,0.69444 -7.63889,0.34722c-3.81944,-0.34722 -9.72222,0.69444 -12.5,3.125c-1.04167,0.69444 -1.38889,1.73611 -1.38889,3.125c0,1.73611 1.38889,3.81944 3.81944,5.55556c3.125,2.77778 6.94444,3.47222 7.98611,3.125c1.04167,-0.34722 1.73611,-1.38889 3.125,-2.77778z" fill-rule="evenodd"></path></svg>