<svg width="100%" viewBox="0 0 200 200" version="1.1" xmlns="http://www.w3.org/2000/svg" xmlns:xlink="http://www.w3.org/1999/xlink"><path d="M100.46875,200h3.75c45,-1.25 80.625,-23.75 80.625,-52.1875c0,-16.5625 -11.875,-31.5625 -31.875,-41.25c-0.625,-0.3125 -1.25,-0.625 -1.5625,-0.9375c-1.5625,-0.625 -3.4375,-1.5625 -5,-2.1875c13.125,-6.25 21.25,-15.625 21.25,-26.5625c0,-12.1875 -10.3125,-22.5 -26.25,-28.75c-1.875,-0.625 -4.0625,-1.5625 -6.25,-2.1875c-2.8125,-0.625 -5.625,-1.5625 -8.75,-1.875c9.0625,-4.375 14.6875,-11.25 14.6875,-18.75c0,-9.375 -8.125,-17.5 -20.3125,-21.875c-5.9375,-2.1875 -12.8125,-3.4375 -20,-3.4375c-21.875,0 -40.3125,11.5625 -40.3125,25.625c0,9.375 8.4375,17.5 21.25,21.25c-18.125,5.625 -30,16.875 -30,30c0,8.75 5.3125,16.5625 14.0625,22.5c-30.625,8.4375 -50.625,27.1875 -50.625,48.4375c0,29.0625 38.4375,52.1875 85.3125,52.1875zM66.71875,25.625c0,-9.0625 14.375,-19.375 34.0625,-19.375c19.375,0 34.0625,10.3125 34.0625,19.375c0,8.125 -11.25,15.3125 -26.25,17.5c-2.8125,0 -5.3125,0.3125 -7.8125,0.3125h-1.25c-17.8125,-0.3125 -32.8125,-8.4375 -32.8125,-17.8125zM101.40625,12.1875c-13.125,-2.1875 -24.0625,7.1875 -24.375,7.5c-1.25,1.25 -1.25,3.125 -0.3125,4.375c0.625,0.625 1.25,0.9375 2.1875,0.9375c0.625,0 1.5625,-0.3125 2.1875,-0.9375c0,0 9.0625,-7.8125 19.0625,-5.9375c1.875,0.3125 3.4375,-0.625 3.75,-2.5c0.3125,-1.5625 -0.9375,-3.125 -2.5,-3.4375zM57.96875,76.875c0,-13.4375 18.4375,-24.6875 41.875,-27.1875h0.9375c2.8125,-0.3125 4.6875,-0.3125 6.5625,-0.3125h2.5c28.125,0 51.5625,12.8125 51.5625,27.8125c0,15 -23.75,27.8125 -51.5625,27.8125h-2.5c-27.1875,-0.9375 -49.375,-13.4375 -49.375,-28.125zM116.40625,62.5c0.3125,0 17.8125,0.625 28.75,14.375c0.625,0.625 1.5625,1.25 2.5,1.25c0.625,0 1.25,-0.3125 1.875,-0.625c1.25,-0.9375 1.5625,-3.125 0.625,-4.375c-12.8125,-16.25 -32.8125,-16.875 -33.75,-16.875c-1.5625,0 -3.125,1.25 -3.125,3.125c0,1.5625 1.25,3.125 3.125,3.125zM104.21875,193.75h-3.75c-43.4375,0 -79.0625,-20.3125 -79.0625,-45.9375c0,-19.6875 20.9375,-37.5 52.5,-44.0625c8.4375,3.75 18.75,6.25 30.3125,6.875h5.3125c10,0 19.6875,-1.5625 27.8125,-4.0625c25.3125,8.125 41.25,23.75 41.25,40.9375c0,25.3125 -32.8125,45 -74.375,46.25zM97.96875,182.8125c9.375,0 20,-1.25 31.875,-4.6875c1.5625,-0.625 2.5,-2.1875 2.1875,-3.75c-0.625,-1.5625 -2.1875,-2.5 -3.75,-2.1875c-60,17.1875 -83.4375,-18.75 -84.375,-20.3125c-0.9375,-1.5625 -2.8125,-1.875 -4.375,-0.9375c-1.5625,0.9375 -1.875,2.8125 -0.9375,4.375c0,0 17.5,27.5 59.375,27.5z" fill-rule="evenodd"></path></svg>