<svg width="100%" viewBox="0 0 200 200" version="1.1" xmlns="http://www.w3.org/2000/svg" xmlns:xlink="http://www.w3.org/1999/xlink"><path d="M192.77673,146.83461h-8.33134v-7.61276h14.7423v-4.16567c0,-12.91357 -7.58777,-24.05882 -18.52056,-29.29923c2.94929,-4.72387 4.68221,-10.27879 4.68221,-16.24611c0,-16.97927 -13.81336,-30.79262 -30.79262,-30.79262c-1.89538,0 -3.74494,0.19787 -5.54659,0.52696v-14.30282l-34.81874,-19.34537h-0.16454v-17.5333l-5.26124,-0.01666c0,0 -1.24137,11.92006 -8.76665,11.94714c-7.52528,-0.02916 -8.76248,-11.94714 -8.76248,-11.94714l-5.26541,0.01666v17.53122h-0.16246l-34.81874,19.34537v14.30282c-1.80165,-0.32909 -3.64913,-0.52696 -5.54659,-0.52696c-16.97927,0 -30.79262,13.81336 -30.79262,30.79262c0,5.96732 1.735,11.52432 4.68221,16.24611c-10.9328,5.24249 -18.52056,16.38566 -18.52056,29.29923v4.16567h14.7423v7.61276h-8.33134c-3.98238,0 -7.22327,3.24089 -7.22327,7.22327v13.95707c0,3.98238 3.24089,7.22327 7.22327,7.22327h8.33342v3.02011c0,7.56277 6.13395,13.69672 13.6988,13.69672c7.56485,0 13.69672,-6.13395 13.69672,-13.69672v-3.02011h114.09766v3.02011c0,7.56277 6.13186,13.69672 13.69672,13.69672c7.56694,0 13.6988,-6.13395 13.6988,-13.69672v-3.02011h8.33134c3.98238,0 7.22327,-3.24089 7.22327,-7.22327v-13.95707c0,-3.98238 -3.24089,-7.22119 -7.22327,-7.22119zM59.3212,49.84118l28.64522,-15.91494h24.06507l28.6473,15.91494v12.21582c-3.67204,1.86414 -6.92334,4.42811 -9.56854,7.53778v-9.45815h-8.33134v78.65824h8.33134v-29.37005c2.6452,3.10967 5.8965,5.67572 9.56854,7.53778v29.87201h-81.35759v-29.87201c3.67204,-1.86414 6.92334,-4.42811 9.56854,-7.53778v29.37213h8.33134v-78.65824h-8.33134v9.45815c-2.6452,-3.10967 -5.8965,-5.67364 -9.56854,-7.53778zM86.57301,60.13872h8.33134v78.65824h-8.33134zM105.34976,60.13872h8.33134v78.65824h-8.33134zM45.44328,66.12478c12.89691,0 23.38815,10.49124 23.38815,23.38398c0,12.89274 -10.49124,23.38606 -23.38815,23.38606c-12.89483,0 -23.38606,-10.49124 -23.38606,-23.38606c0,-12.89483 10.49332,-23.38398 23.38606,-23.38398zM154.59005,66.12478c12.89691,0 23.39023,10.49124 23.39023,23.38398c0,12.89274 -10.49332,23.38606 -23.39023,23.38606c-12.89274,0 -23.38398,-10.49124 -23.38398,-23.38606c0,-12.89483 10.49124,-23.38398 23.38398,-23.38398zM28.50775,96.05928c-0.8248,-2.10366 -1.24137,-4.30105 -1.24137,-6.55051c0,-10.0226 8.1543,-18.1769 18.1769,-18.1769c2.25154,0 4.44685,0.41657 6.55051,1.24137zM136.41523,89.50876c0,2.25363 0.41657,4.44893 1.24137,6.55051l23.48604,-23.48604c-2.10366,-0.8248 -4.29897,-1.24137 -6.5526,-1.24137c-10.02052,0 -18.17481,8.1543 -18.17481,18.1769zM57.48623,75.91827l-25.63344,25.63136c1.2622,1.42882 2.7181,2.63479 4.34063,3.59914l24.88987,-24.89195c-0.96227,-1.62253 -2.16823,-3.07843 -3.59705,-4.33854zM141.00164,101.54963l25.63344,-25.63136c1.42882,1.2622 2.63479,2.71602 3.59914,4.33854l-24.88987,24.89195c-1.62253,-0.96227 -3.07843,-2.16823 -4.34271,-3.59914zM172.01712,84.36208l-22.56751,22.56959c1.67876,0.49988 3.39919,0.75399 5.14044,0.75399c10.02676,0 18.18314,-8.1543 18.18314,-18.17898c0.00208,-1.74125 -0.25202,-3.46375 -0.75607,-5.1446zM62.87035,84.36416l-22.56751,22.56751c1.67876,0.49988 3.40127,0.75399 5.14252,0.75399c10.02468,0 18.18106,-8.1543 18.18106,-18.17898c-0.00208,-1.73917 -0.25619,-3.46375 -0.75607,-5.14252zM9.50397,130.88843c1.48923,-8.53546 7.46696,-15.54419 15.40464,-18.49973c5.45494,4.90299 12.64072,7.91477 20.53466,7.91477c1.89538,0 3.74285,-0.19787 5.54659,-0.52696v11.11192zM190.49811,130.88843h-41.48589v-11.11192c1.80165,0.32909 3.65121,0.52696 5.54659,0.52696c7.89394,0 15.07972,-3.01178 20.53466,-7.91477c7.93768,2.95554 13.9175,9.96636 15.40464,18.49973zM50.98987,139.21977v7.61276h-8.03766v-7.61276zM157.04987,139.21977v7.61276h-8.03766v-7.61276zM191.66866,166.9048h-183.33733v-11.74094h183.33733z" fill-rule="evenodd"></path></svg>